<svg xmlns="http://www.w3.org/2000/svg" height="1024" preserveAspectRatio="none" style="display: block;" version="1.1" viewBox="0 0 2048 2048" width="1024">
<defs>
	<linearGradient gradientUnits="userSpaceOnUse" id="Gradient1" x1="1566.29" x2="1573.61" y1="1526.4" y2="1518.44">
		<stop class="stop0" offset="0" stop-color="rgb(100,161,186)" stop-opacity="1"></stop>
		<stop class="stop1" offset="1" stop-color="rgb(141,187,205)" stop-opacity="1"></stop>
	</linearGradient>
	<linearGradient gradientUnits="userSpaceOnUse" id="Gradient2" x1="1288.48" x2="1272.35" y1="604.904" y2="493.313">
		<stop class="stop0" offset="0" stop-color="rgb(44,5,10)" stop-opacity="1"></stop>
		<stop class="stop1" offset="1" stop-color="rgb(81,43,48)" stop-opacity="1"></stop>
	</linearGradient>
	<linearGradient gradientUnits="userSpaceOnUse" id="Gradient3" x1="802.375" x2="951.223" y1="562.807" y2="721.172">
		<stop class="stop0" offset="0" stop-color="rgb(59,15,20)" stop-opacity="1"></stop>
		<stop class="stop1" offset="1" stop-color="rgb(101,25,47)" stop-opacity="1"></stop>
	</linearGradient>
	<linearGradient gradientUnits="userSpaceOnUse" id="Gradient4" x1="1055.94" x2="791.315" y1="1038.54" y2="934.052">
		<stop class="stop0" offset="0" stop-color="rgb(158,50,72)" stop-opacity="1"></stop>
		<stop class="stop1" offset="1" stop-color="rgb(209,93,109)" stop-opacity="1"></stop>
	</linearGradient>
</defs>
<path d="M 0 0 L 2048 0 L 2048 2048 L 0 2048 L 0 0 z" fill="rgb(255,255,255)" transform="translate(0,0)"></path>
<path d="M 1237.35 130.543 C 1226.69 154.234 1199.86 166.859 1174.77 163.811 C 1112.53 156.25 1095.31 61.9685 1174.69 70.1943 C 1207.6 75.3922 1238.43 105.457 1256.53 131.089 C 1326.51 230.191 1344.74 351.323 1327.81 468.095 C 1396.75 510.809 1451.31 562.557 1490.25 634.42 C 1545.56 736.496 1556.47 876.462 1502.09 981.097 C 1563.45 938.612 1635.57 879.646 1691.26 829.884 C 1680.95 806.957 1686.28 782.659 1708.44 769.612 C 1703.89 761.262 1695.12 753.752 1693.89 744.39 C 1692.46 733.488 1705.94 726.973 1715 726.9 C 1721.64 726.807 1728 729.556 1732.48 734.453 C 1742.32 745.013 1741.99 759.899 1741.7 773.167 C 1751.31 753.864 1785.07 714.737 1811.09 733.908 C 1825.75 744.704 1785.93 777.332 1785.86 782.503 C 1796.73 791.289 1840.07 756.839 1848.95 783.656 C 1857.14 808.362 1809.82 813.705 1803.4 819.457 C 1806.04 820.542 1820.72 821.765 1825.96 822.324 C 1841.69 824.001 1861.65 837.57 1842.58 851.647 C 1832.89 858.798 1806.75 854.24 1794.25 851.487 C 1771.49 870.619 1751.51 879.791 1721.89 866.799 C 1688.83 895.882 1653.13 922.477 1618.64 949.826 C 1503.3 1041.3 1382.16 1133.94 1254.83 1208.03 C 1263.16 1215.77 1272.9 1226.25 1280.99 1234.51 C 1285.73 1240.69 1290.27 1245.96 1295.37 1251.85 C 1300.51 1258.07 1305.74 1264.22 1311.05 1270.29 L 1316.43 1276.81 C 1318.72 1279.43 1323.55 1285.31 1326.06 1287.2 C 1328.97 1291.55 1330.94 1294.51 1334.39 1298.55 C 1339.08 1305.79 1343.78 1311.99 1348.95 1318.86 C 1351.72 1323.11 1359.49 1335.77 1362.2 1339.1 C 1370.73 1352.76 1388.59 1383.69 1397.44 1394.92 C 1399.99 1400.51 1401.89 1405.21 1405.38 1410.3 C 1422.78 1446.34 1437.64 1479.91 1447.83 1518.84 C 1449.46 1525.06 1451.8 1532.93 1454.07 1538.83 C 1456.41 1547.83 1458.87 1556.8 1461.46 1565.74 C 1476.53 1631.22 1481.43 1711.25 1481.31 1778.05 C 1420.73 1757.19 1357.27 1788.81 1296.07 1799.89 C 1256.28 1807.09 1227.22 1810.86 1187.02 1814.42 C 1150.71 1881.6 1109.51 1931.29 1047.73 1977.25 C 1030.21 1990.28 1009.58 2004.12 989.11 2011.43 C 963.935 1997.42 918.728 1944.71 934.636 1911.48 C 939.271 1901.8 954.465 1903.03 962.365 1908.92 C 985.291 1926.02 994.688 1957.34 1000.38 1984.12 C 1052.05 1931.61 1089.87 1878.8 1126.31 1815.19 C 1105.36 1815.09 1089.6 1813.06 1069.15 1811.08 C 995.19 1803.95 942.923 1785.47 877.036 1753.31 C 847.053 1818.31 811.168 1875.65 757.044 1923.22 C 739.366 1938.76 716.18 1956.53 694.301 1965.2 C 662.866 1957.56 622.675 1945.03 603.102 1917.36 C 588.408 1896.59 605.87 1878.4 629.448 1885.29 C 661.899 1894.77 681.258 1916.08 698.441 1943.74 C 756.876 1896.59 816.364 1793.18 832.299 1720.39 C 823.809 1715.44 815.217 1707.07 807.965 1700.5 C 687.584 1591.4 682.558 1417.16 726.794 1271.24 C 737.481 1235.99 753.44 1206.08 767.812 1172.27 C 758.814 1158.3 750.565 1143.86 743.1 1129.01 C 739.151 1121.07 727.417 1092.88 722.947 1089.12 C 695.63 1066.16 668.525 1043.05 648.3 1012.92 C 639.949 1000.48 630.769 987.164 624.37 973.426 C 619.388 962.73 617.161 950.155 610.471 940.188 C 593.461 915.791 575.826 891.293 558.167 867.396 C 525.056 822.03 489.924 778.175 452.876 735.963 C 426.787 705.93 403.578 679.619 373.923 653.013 C 345.737 653.34 329.404 647.245 309.271 628.176 C 294.645 630.529 274.587 635.332 260.992 627.763 C 253.017 623.322 252.58 615.585 258.98 609.173 C 271.489 596.641 290.347 595.241 306.997 594.456 C 289.042 591.004 263.565 586.473 256.172 566.314 C 253.335 558.581 258.918 551.511 266.587 549.73 C 288.082 544.738 306.345 557.228 323.978 567.333 C 320.209 558.587 271.705 498.577 320.295 504.917 C 336.37 507.014 348.573 533.499 355.922 547.907 C 358.147 538.661 359.993 531.832 364.965 523.177 C 370.219 512.089 389.331 497.708 401.477 507.5 C 417.985 520.81 399.779 545.088 391.16 555.738 C 411.552 573.788 411.572 597.422 400.569 620.449 C 449.604 669.844 496.345 721.464 540.645 775.146 C 563.811 802.78 591.275 834.935 611.149 865.265 C 620.729 810.045 648.282 778.42 688.723 743.309 C 692.078 717.834 695.983 696.087 704.096 671.42 C 745.651 545.082 863.256 439.841 995.246 416.268 C 993.225 408.662 991.069 401.093 988.778 393.564 C 960.446 299.199 901.282 210.861 812.894 163.276 C 804.115 187.4 788.045 197.056 764.595 205.12 C 737.617 215.085 690.389 212.062 680.176 179.566 C 672.631 155.561 698.986 135.267 719.567 130.618 C 756.249 122.332 796.838 135.053 827.762 153.805 C 901.716 199.6 958.727 268.255 990.152 349.366 C 998.42 371.04 1003.26 390.918 1008.75 413.447 C 1074.97 397.925 1161.69 405.68 1226.61 425.124 C 1255.85 433.879 1285.47 447.109 1312.57 460.93 C 1329.23 345.288 1302.43 227.575 1237.35 130.543 z" fill="rgb(59,14,22)" transform="translate(0,0)"></path>
<path d="M 1062.27 424.416 C 1110.89 419.318 1194.63 433.366 1240.48 449.027 C 1260.37 455.82 1288.53 469.118 1308.27 478.149 L 1307.77 480.197 C 1306.63 484.924 1304.41 490.987 1306.93 495.118 L 1308.99 495.34 C 1313.2 493.057 1315.7 488.896 1318.68 484.958 C 1373.62 517.073 1427.72 566.091 1461 620.797 C 1514.52 708.954 1531.06 814.677 1507.03 914.968 C 1498.85 948.527 1484 983.136 1463.47 1011.59 C 1458.13 1018.98 1432.38 1037.44 1423.92 1043.59 C 1387.03 1070.66 1349 1096.14 1309.95 1119.99 C 1290.98 1131.48 1271.83 1142.67 1252.5 1153.55 C 1219.43 1172.27 1212.41 1174.21 1175.26 1182.56 C 1098.35 1199.84 1031.3 1194.18 955.416 1175.67 C 937.658 1171.62 922.378 1166.21 905.465 1160.98 C 841.531 1141.2 783.137 1112.82 730.789 1070.86 C 704.291 1049.61 687.709 1035.67 666.528 1007.24 C 636.274 966.62 620.647 921.772 628.673 870.745 C 636.63 820.153 665.079 782.845 705.797 753.238 C 718.494 613.769 809.004 505.984 935.586 452.329 C 983.803 463.348 1019.31 467.683 1050.57 509.371 C 1058.21 502.884 1080.08 480.694 1069.55 470.9 C 1040.53 443.904 1000.89 442.34 963.505 441.84 C 997.818 432.307 1026.77 426.618 1062.27 424.416 z" fill="rgb(250,227,135)" transform="translate(0,0)"></path>
<path d="M 1017.43 812.489 C 1013.09 775.105 1054.15 703.337 1077.89 673.802 C 1113.58 629.393 1162.8 595.428 1220.47 589.134 C 1312.06 579.138 1387.46 648.191 1396.59 737.934 C 1401.92 790.294 1386.41 837.888 1353.68 878.717 C 1326.51 912.918 1288.97 937.375 1246.7 948.414 C 1235.42 951.41 1221.95 952.717 1212.6 955.293 C 1173.06 906.839 1126.53 888.183 1071.14 864.156 C 1059.01 858.896 1035.92 849.923 1026.08 842.772 C 1018 834.211 1018.03 823.394 1017.43 812.489 z" fill="rgb(255,255,255)" transform="translate(0,0)"></path>
<path d="M 1017.43 812.489 C 1013.09 775.105 1054.15 703.337 1077.89 673.802 C 1113.58 629.393 1162.8 595.428 1220.47 589.134 C 1312.06 579.138 1387.46 648.191 1396.59 737.934 C 1401.92 790.294 1386.41 837.888 1353.68 878.717 C 1326.51 912.918 1288.97 937.375 1246.7 948.414 C 1235.42 951.41 1221.95 952.717 1212.6 955.293 C 1173.06 906.839 1126.53 888.183 1071.14 864.156 C 1059.01 858.896 1035.92 849.923 1026.08 842.772 C 1089.74 860.403 1167.6 888.195 1209.87 940.774 C 1216.72 939.675 1223.35 939.124 1230.23 937.682 C 1297.29 923.621 1355.58 869.054 1374.02 803.001 C 1385.88 761.379 1380.7 716.746 1359.6 678.955 C 1340.53 645.539 1308.42 618.523 1270.92 609.279 C 1150.95 579.697 1044.87 709.727 1017.43 812.489 z" fill="rgb(59,14,22)" transform="translate(0,0)"></path>
<path d="M 1271.56 659.323 C 1307.03 654.342 1331.57 687.394 1336.77 719.217 C 1348.22 789.297 1298.77 873.212 1225.24 884.741 C 1185.96 888.897 1163.57 863.887 1158.34 827.273 C 1148.76 760.176 1201 669.12 1271.56 659.323 z" fill="rgb(59,14,22)" transform="translate(0,0)"></path>
<path d="M 1219.14 700.702 C 1223.48 688.959 1244.01 677.304 1255.13 673.055 C 1284.67 661.406 1312.13 673.788 1321.93 704.051 C 1341.79 765.42 1302.29 849.777 1239.98 868.619 C 1155.19 894.26 1159.33 785.478 1186.85 738.948 C 1190.85 732.194 1196.25 721.427 1203.68 719.096 C 1208.38 712.342 1213.18 706.424 1219.14 700.702 z" fill="rgb(93,55,60)" transform="translate(0,0)"></path>
<path d="M 1219.14 700.702 C 1228.84 695.561 1241.76 690.511 1252.76 694.559 C 1286.3 706.896 1274.38 757.616 1245.27 768.666 C 1206.1 783.536 1189.62 752.836 1203.68 719.096 C 1208.38 712.342 1213.18 706.424 1219.14 700.702 z" fill="rgb(255,255,255)" transform="translate(0,0)"></path>
<path d="M 1242.57 781.062 C 1249.2 780.804 1254.74 780.229 1258.4 786.921 C 1262.13 793.756 1256.54 799.326 1251.37 802.534 C 1237.28 804.283 1230.19 789.027 1242.57 781.062 z" fill="rgb(250,227,135)" transform="translate(0,0)"></path>
<path d="M 823.583 818.274 C 826.473 817.975 827.18 817.58 829.739 818.875 L 829.259 820.623 C 824.986 824.223 822.232 824.868 817.062 826.689 C 837.552 837.304 853.315 850.953 872.811 862.267 C 922.878 891.324 983.14 901.69 1040.48 900.654 C 1049.76 899.985 1062.16 900.675 1071.14 898.901 C 1098.64 893.47 1102.03 886.949 1123.6 908.898 L 1100.78 902.879 C 1101.43 904.641 1102.43 907.769 1102.62 909.654 C 1107.63 959.223 1078.31 1015.63 1049.71 1053.36 C 1018.45 1093.61 968.669 1117.35 917.58 1107.59 C 882.624 1100.61 851.898 1079.97 832.22 1050.25 C 800.419 1002.52 795.669 934.838 804.849 879.494 C 807.388 864.193 811.742 849.87 814.735 834.675 C 806.015 831.37 802.365 830.964 793.117 829.446 C 803.873 821.93 811.108 820.431 823.583 818.274 z" fill="rgb(59,14,22)" transform="translate(0,0)"></path>
<path d="M 816.412 865.52 C 818.665 867.501 824.287 878.52 825.916 881.742 C 836.93 903.527 855.641 918.514 876.997 930.155 C 940.614 964.832 1021.8 969.443 1090.82 949.597 C 1083.01 985.189 1068.49 1011.47 1047.03 1040.37 L 1045.3 1042.46 C 1043.42 1042.24 1034.51 1035.13 1030.55 1032.79 C 1000.63 1015.13 940.543 1012.11 907.947 1021.51 C 883.576 1028.54 868.311 1039.7 856.203 1062.31 C 808.104 1016.14 807.932 927.377 816.412 865.52 z" fill="url(#Gradient4)" transform="translate(0,0)"></path>
<path d="M 820.514 839.626 C 834.534 847.826 847.877 857.029 861.483 865.885 C 927.693 908.983 1017.72 918.996 1094.08 904.494 C 1094 914.822 1094.12 926.35 1092.68 936.603 C 1092.15 940.392 1091 940.53 1088.33 942.345 C 1076.69 946.828 1058.85 950.253 1045.7 951.647 C 965.992 960.094 856.364 941.233 820.982 858.971 C 818.016 852.076 819.01 846.558 820.514 839.626 z" fill="rgb(255,255,255)" transform="translate(0,0)"></path>
<path d="M 933.818 1026.41 C 945.173 1025.22 955.858 1025.69 967.204 1026.34 C 949.081 1033.26 927.935 1043.41 919.043 1061.92 C 917.381 1065.37 916.356 1067.93 917.624 1071.43 C 926.365 1061.07 930.673 1053.91 942.288 1046.39 C 976.319 1024.37 1007.95 1027.17 1038.98 1051.14 C 1033.57 1056.92 1029.57 1060.67 1023.62 1065.94 C 978.089 1107.05 907.84 1109.87 862.122 1067.65 C 877.711 1036.64 900.615 1029.71 933.818 1026.41 z" fill="rgb(230,133,147)" transform="translate(0,0)"></path>
<path d="M 742.837 742.971 L 742.32 741.374 C 713.74 651.03 810.984 522.774 897.739 498.727 C 982.334 472.906 1019.34 539.054 1002.97 615.488 C 992.485 664.448 953.102 744.963 901.518 759.65 C 902.763 762.002 904.123 764.823 905.579 766.993 C 893.011 775.423 888.888 782.173 881.265 795.059 L 878.261 793.795 C 870.579 793.827 817.514 767.23 804.111 762.094 C 782.604 753.855 764.114 749.711 742.837 742.971 z" fill="url(#Gradient3)" transform="translate(0,0)"></path>
<path d="M 878.261 793.795 C 850.46 773.757 823.503 758.399 791.318 746.461 C 781.062 742.657 759.881 738.1 751.943 733.286 C 746.816 730.175 752.151 686.852 754.381 680.592 C 767.337 627.467 793.777 585.873 834.852 549.42 C 867.913 520.078 936.673 482.912 974.459 526.035 C 992.5 546.624 991.933 582.222 989.458 608.528 C 980.852 584.812 965.6 558.289 936.539 564.863 C 881.674 577.275 831.751 662.51 842.513 716.633 C 848.529 746.89 869.847 766.264 901.518 759.65 C 902.763 762.002 904.123 764.823 905.579 766.993 C 893.011 775.423 888.888 782.173 881.265 795.059 L 878.261 793.795 z" fill="rgb(255,255,255)" transform="translate(0,0)"></path>
<path d="M 919.175 591.167 C 960.159 590.563 952.36 648.208 908.895 658.983 C 901.995 659.934 894.832 660.186 889.129 656.255 C 868.846 642.276 884.402 607.443 901.699 597.677 C 908.538 593.816 912.175 592.584 919.175 591.167 z" fill="rgb(255,255,255)" transform="translate(0,0)"></path>
<path d="M 908.679 665.411 C 914.212 662.792 920.822 665.112 923.505 670.614 C 926.188 676.116 923.946 682.753 918.475 685.5 C 914.879 687.306 910.591 687.039 907.246 684.802 C 903.902 682.564 902.018 678.702 902.315 674.689 C 902.611 670.676 905.042 667.133 908.679 665.411 z" fill="rgb(250,227,135)" transform="translate(0,0)"></path>
<path d="M 1232.54 496.919 C 1284.03 498.33 1341.47 563.805 1367.25 604.661 C 1361.04 599.766 1354.67 594.334 1348.53 589.285 C 1300.97 553.271 1263.18 543.187 1204.7 544.8 C 1207.67 524.471 1217.17 510.48 1232.54 496.919 z" fill="url(#Gradient2)" transform="translate(0,0)"></path>
<path d="M 1286.06 968.347 C 1303.72 965.994 1328.94 973.548 1333.32 993 C 1334.51 998.063 1333.53 1003.39 1330.62 1007.71 C 1325.23 1015.64 1316 1018.11 1307.26 1019.98 C 1294.9 1021.5 1282.08 1020.02 1271.11 1013.27 C 1260.76 1006.89 1250.85 991.902 1259.53 980.26 C 1265.43 972.338 1276.63 969.748 1286.06 968.347 z" fill="rgb(241,173,126)" transform="translate(0,0)"></path>
<path d="M 905.579 766.993 C 912.218 764.545 918.865 763.352 925.225 766.914 C 947.759 779.531 954.8 805.103 953.896 828.16 C 948.536 814.075 930.459 770.247 909.236 779.563 C 891.937 787.156 884.756 811.876 872.774 825.461 C 874.97 813 876.556 806.768 881.265 795.059 C 888.888 782.173 893.011 775.423 905.579 766.993 z" fill="rgb(59,14,22)" transform="translate(0,0)"></path>
<path d="M 1335.16 1330.78 C 1348.18 1346.42 1374.92 1393.28 1384.52 1411.42 C 1379.65 1426.46 1372.71 1440.07 1365.28 1453.96 C 1336.15 1508.31 1295.76 1555.82 1246.82 1593.33 C 1126.61 1686.13 943.543 1720 801.293 1662.3 C 794.716 1659.63 788.088 1650.66 783.807 1645.12 C 757.352 1611.22 746.112 1581.61 732.656 1541.83 C 828.36 1598.85 957.885 1596.15 1061.46 1563.23 C 1180.06 1525.39 1278.61 1441.7 1335.16 1330.78 z" fill="rgb(93,55,60)" transform="translate(0,0)"></path>
<path d="M 1282.78 1265.56 C 1288.01 1269.02 1323.59 1315.02 1329.01 1322.11 C 1239.01 1524.14 967.799 1634.44 762.734 1549.73 C 751.922 1545.39 739.486 1539.44 730.609 1531.84 C 723.972 1493.33 721.932 1468.9 721.871 1429.62 C 790.4 1470.6 888.482 1474.94 965.817 1462.2 C 1093.54 1441.74 1207.72 1370.91 1282.78 1265.56 z" fill="rgb(250,227,135)" transform="translate(0,0)"></path>
<path d="M 1234.54 1220.99 C 1238.86 1222.26 1271.26 1252.52 1277.81 1258.09 C 1267.39 1270.78 1259.19 1285.09 1248.11 1297.95 C 1134.63 1429.63 925.197 1499.62 758.751 1438.41 C 746.352 1433.68 733.819 1427.5 721.927 1421.65 C 721.135 1392.51 728.025 1347.08 732.334 1318.03 C 743.245 1321.18 758.35 1327.6 769.972 1331.43 C 873.641 1365.63 993.358 1348.49 1088.73 1297.59 C 1101.32 1290.86 1114.95 1281.72 1126.53 1273.35 C 1135.45 1266.9 1146.69 1256.25 1155.94 1251.06 C 1161.56 1247.92 1175.76 1246.23 1183.18 1243.64 C 1201.16 1237.35 1217.55 1229.48 1234.54 1220.99 z" fill="rgb(93,55,60)" transform="translate(0,0)"></path>
<path d="M 803.738 1137.38 C 810.768 1139.81 823.834 1146.11 831.022 1149.27 C 843.857 1154.92 856.93 1160.01 870.202 1164.54 C 946.563 1190.77 1034.71 1205.67 1115.38 1199.39 C 1137.99 1197.62 1159.02 1194.03 1181.31 1190.23 C 1163.57 1198.4 1100.38 1227.2 1146.53 1247.52 C 1124.76 1264.3 1111.08 1274.82 1086.55 1287.77 C 1052.8 1305.47 1030.63 1315.57 993.798 1326.06 C 926.663 1345.6 855.464 1346.41 787.898 1328.42 C 769.551 1323.47 753.23 1318.5 736.478 1309.16 C 741.718 1258.87 781.468 1181.55 803.738 1137.38 z" fill="rgb(250,227,135)" transform="translate(0,0)"></path>
<path d="M 1389.48 1424.46 C 1398.63 1430.81 1420.48 1489.08 1425.08 1503.02 C 1372.02 1632.87 1231.29 1732.35 1097.1 1758.26 C 1058.01 1765.82 1002.08 1777.63 962.91 1771.55 C 944.531 1768.7 885.655 1734.27 868.626 1723.65 C 844.666 1706.11 827.085 1692.37 805.402 1672.28 C 903.541 1710.23 1016.89 1705.93 1115.67 1672.56 C 1216.46 1639.18 1302.56 1571.88 1359.29 1482.14 C 1371.55 1462.49 1379.29 1445.06 1389.48 1424.46 z" fill="rgb(250,227,135)" transform="translate(0,0)"></path>
<path d="M 1711.81 734.077 C 1737.92 737.793 1736.09 761.088 1738.59 781.946 C 1747.79 773.535 1790.73 722.21 1803.65 737.912 C 1807.73 754.286 1778.46 774.817 1764.92 780.2 C 1786.39 783.716 1780.86 789.375 1790.53 797.91 C 1795.13 789.259 1802.05 788.821 1810.91 785.707 C 1817.11 783.529 1838.27 777.169 1840.72 785.577 C 1838.05 801.563 1808.44 810.48 1794.76 813.31 L 1795.16 825.614 C 1805.56 826.272 1838.64 828.261 1840.49 840.322 C 1834.9 850.324 1803.83 846.87 1794.18 845.307 C 1761.43 865.552 1757.78 865.431 1717.6 862.779 C 1689.6 879.732 1667.77 900.405 1642.25 920.176 C 1538.11 1000.83 1434.76 1083.18 1324.33 1155.19 C 1285.97 1179.23 1248.01 1202.75 1205.93 1219.89 C 1182.55 1229.42 1167.85 1239.54 1141.63 1233.97 C 1150.96 1213.69 1166.36 1210.9 1185.16 1201.85 C 1238.63 1176.11 1289.32 1145.29 1339.12 1113.12 C 1376.31 1089.38 1412.27 1063.75 1446.85 1036.33 C 1463.09 1023.65 1479.67 1008.85 1495.9 996.742 C 1565.15 945.049 1635.15 894.586 1695.82 832.717 C 1687.61 810.728 1689.85 786.987 1711.92 774.681 C 1711.87 774.458 1711.81 774.235 1711.75 774.012 C 1710.45 757.272 1690.59 744.534 1711.81 734.077 z" fill="rgb(93,55,60)" transform="translate(0,0)"></path>
<path d="M 1741.21 803.654 C 1744.79 816.35 1741.33 822.552 1734.14 832.771 L 1733.29 831.535 C 1736.25 822.336 1738.89 813.037 1741.21 803.654 z" fill="rgb(59,14,22)" transform="translate(0,0)"></path>
<path d="M 1428.62 1520.69 C 1433.84 1526.77 1446.72 1591.77 1448.8 1602.65 C 1453.33 1626.32 1423.18 1663.35 1407.84 1683.32 C 1383.07 1715.34 1353.49 1743.34 1320.17 1766.34 C 1305.1 1776.87 1298.65 1781.64 1279.81 1784.65 C 1257.28 1788.26 1234.87 1791.49 1212.23 1794.46 C 1206.14 1795.72 1200.13 1796.15 1193.94 1796.76 C 1204.35 1771.71 1210.09 1756.64 1213.35 1729.28 C 1284.52 1694.18 1348.68 1639.82 1395.4 1575.51 C 1406.99 1559.56 1419.11 1538.1 1428.62 1520.69 z" fill="rgb(93,55,60)" transform="translate(0,0)"></path>
<path d="M 389.219 512.17 C 393.652 511.859 400.212 512.297 400.493 518.407 C 401.241 534.698 385.59 545.766 377.346 558.294 C 401.662 569.216 408.739 599.945 389.319 619.162 C 402.826 637.204 427.445 659.043 443.263 676.381 C 488.285 725.732 531.578 775.774 572.359 828.721 C 584.205 844.099 598.852 862.229 609.179 878.243 C 608.518 892.674 608.161 907.119 608.108 921.565 C 603.149 912.952 595.586 902.805 589.747 894.521 C 573.356 870.857 556.289 847.306 538.384 824.777 C 487.211 760.389 437.659 699.857 375.828 645.198 C 285.98 646.886 296.368 562.355 364.226 555.554 C 366.065 535.76 369.416 520.965 389.219 512.17 z" fill="rgb(93,55,60)" transform="translate(0,0)"></path>
<path d="M 370.966 573.54 C 373.054 574.691 372.373 573.867 373.185 575.855 C 359.875 591.15 354.388 601.256 368.299 619.252 C 371.264 623.087 372.158 622.541 372.178 626.356 C 348.474 619.465 350.234 586.217 370.966 573.54 z" fill="rgb(59,14,22)" transform="translate(0,0)"></path>
<path d="M 1454.44 1628.7 C 1458.72 1653.39 1460.8 1676.52 1463.33 1701.42 C 1450.39 1721.7 1437.61 1736.47 1421.79 1754.44 C 1390.56 1757.91 1358.87 1766.78 1328.2 1774.01 C 1325.15 1774.83 1325.17 1774.9 1322.04 1774.86 C 1322.77 1773.31 1343.67 1758.58 1347.27 1755.75 C 1355.39 1749.35 1363.28 1742.66 1370.93 1735.69 C 1403.08 1706.42 1434.34 1667.17 1454.44 1628.7 z" fill="rgb(250,227,135)" transform="translate(0,0)"></path>
<path d="M 1197.47 1735.78 C 1199.12 1735.83 1198.32 1735.56 1199.75 1736.94 C 1190.09 1801.02 1140.31 1875.52 1094.72 1921.61 C 1075.66 1940.88 1053.95 1955.65 1032.5 1971.53 L 1031.45 1972.14 C 1035.35 1966.17 1041.9 1958.96 1046.58 1953.17 C 1056.2 1941.23 1065.75 1929.23 1075.21 1917.17 C 1107.12 1876.12 1156.07 1799.11 1167.41 1748.43 C 1177.52 1744.43 1187.54 1740.21 1197.47 1735.78 z" fill="rgb(93,55,60)" transform="translate(0,0)"></path>
<path d="M 1157.59 81.1275 C 1184.87 79.9976 1213.54 94.5461 1229.4 116.72 C 1222.63 133.242 1219.19 139.505 1202.8 148.198 C 1151.32 167.732 1101.62 98.6906 1157.59 81.1275 z" fill="rgb(93,55,60)" transform="translate(0,0)"></path>
<path d="M 724.298 141.199 C 740.764 140.111 791.992 143.302 801.654 157.299 C 804.381 172.92 777.502 186.051 765.806 191.142 C 764.453 191.626 763.087 192.074 761.71 192.484 C 743.29 198.122 722.211 200.23 704.5 190.734 C 693.138 184.642 684.536 170.527 692.734 158.281 C 699.902 147.574 712.29 143.83 724.298 141.199 z" fill="rgb(93,55,60)" transform="translate(0,0)"></path>
<path d="M 841.272 1729.42 C 850.124 1735.34 859.434 1741.12 868.434 1746.85 C 843.867 1808.9 805.594 1864.6 756.477 1909.78 C 750.46 1914.67 744.173 1919.5 738.068 1924.31 C 749.972 1904.47 766.717 1883.43 779.376 1863.33 C 808.034 1817.81 824.463 1779.67 841.272 1729.42 z" fill="rgb(93,55,60)" transform="translate(0,0)"></path>
<path d="M 1149.8 1754.13 L 1151.27 1754.22 L 1152.01 1755.89 C 1150.48 1766.2 1140.74 1787.47 1136.28 1798.03 C 1088.97 1798.54 1055.39 1793.26 1009.78 1784.99 C 1002.49 1783.65 994.952 1783.08 987.236 1781.63 C 1053.66 1777.98 1085.79 1773.58 1149.8 1754.13 z" fill="rgb(93,55,60)" transform="translate(0,0)"></path>
<path d="M 611.286 1894.02 C 635.929 1893.3 655.683 1906.39 671.705 1924.25 C 675.812 1928.82 688.405 1944.86 688.827 1950.35 L 687.004 1951.42 C 671.38 1948.65 655.281 1943.53 641.819 1935.06 C 629.222 1927.14 599.997 1912.25 611.286 1894.02 z" fill="rgb(93,55,60)" transform="translate(0,0)"></path>
<path d="M 947.254 1916.72 C 970.757 1915.74 984.771 1965.32 988.236 1983.84 C 988.829 1987.01 990.474 1993.97 989.579 1996.61 L 987.365 1996.88 C 965.13 1975.04 949.206 1958.83 941.366 1928.01 C 943.409 1922.49 943.871 1921.53 947.254 1916.72 z" fill="rgb(93,55,60)" transform="translate(0,0)"></path>
<path d="M 740.728 1101.64 C 752.522 1107.22 779.983 1124.31 792.745 1131.41 C 788.686 1139.26 784.374 1146.04 779.71 1153.5 L 772.857 1165.47 C 761.392 1147.2 749.535 1121.16 740.728 1101.64 z" fill="rgb(93,55,60)" transform="translate(0,0)"></path>
<path d="M 267.808 557.224 C 287.936 555.38 299.772 559.288 315.815 570.906 C 311.43 577.204 309.799 579.81 306.44 586.679 C 298.19 589.581 261.63 575.994 261.752 562.185 C 263.843 558.49 263.391 559.572 267.808 557.224 z" fill="rgb(93,55,60)" transform="translate(0,0)"></path>
<path d="M 310.34 510.787 C 331.073 511.234 339.59 533.816 349.474 549.249 C 346.797 550.499 343.26 551.785 340.444 552.893 L 331.563 557.698 C 320.159 547.886 299.067 526.504 310.34 510.787 z" fill="rgb(93,55,60)" transform="translate(0,0)"></path>
<path d="M 297.028 601.402 L 300.089 601.344 C 304.195 603.536 304.414 613.208 306.572 620.192 C 293.861 622.234 285.615 623.371 272.789 623.34 C 268.07 622.428 264.278 621.846 262.733 617.055 C 265.47 606.194 287.409 602.422 297.028 601.402 z" fill="rgb(93,55,60)" transform="translate(0,0)"></path>
<path d="M 1463.5 1717.69 C 1465.14 1727.49 1466.06 1745.17 1467.15 1755.94 C 1457.93 1754.39 1447.06 1754.04 1437.75 1753.92 L 1434.03 1753.75 L 1433.51 1752.34 C 1443.69 1740.7 1453.97 1729.92 1463.5 1717.69 z" fill="rgb(93,55,60)" transform="translate(0,0)"></path>
<path d="M 1280.99 1234.51 C 1311.14 1206.28 1342.05 1176.59 1375.32 1151.29 C 1472.9 1077.68 1594.23 1022.86 1718.44 1025.15 C 1760.54 1025.93 1809.78 1038.48 1839.71 1070.46 C 1886.84 1120.8 1863.66 1190.57 1815.76 1231.72 C 1752.83 1285.78 1668.5 1310.72 1587.97 1324.02 C 1572.33 1326.59 1558.13 1327.49 1542.94 1329.37 C 1612.97 1351.39 1687.2 1391.4 1723.9 1457.59 C 1752.51 1509.17 1740.74 1570.59 1685.3 1597.35 C 1639.28 1619.55 1586.98 1617.13 1539.49 1601.17 C 1518.68 1594.33 1498.62 1585.39 1479.62 1574.48 C 1475.29 1572.04 1465.32 1565.26 1461.46 1565.74 C 1458.87 1556.8 1456.41 1547.83 1454.07 1538.83 C 1451.8 1532.93 1449.46 1525.06 1447.83 1518.84 C 1437.64 1479.91 1422.78 1446.34 1405.38 1410.3 C 1401.89 1405.21 1399.99 1400.51 1397.44 1394.92 C 1388.59 1383.69 1370.73 1352.76 1362.2 1339.1 C 1359.49 1335.77 1351.72 1323.11 1348.95 1318.86 C 1343.78 1311.99 1339.08 1305.79 1334.39 1298.55 C 1330.94 1294.51 1328.97 1291.55 1326.06 1287.2 C 1323.55 1285.31 1318.72 1279.43 1316.43 1276.81 L 1311.05 1270.29 C 1305.74 1264.22 1300.51 1258.07 1295.37 1251.85 C 1290.27 1245.96 1285.73 1240.69 1280.99 1234.51 z" fill="rgb(143,194,213)" transform="translate(0,0)"></path>
<path d="M 1700.09 1047.17 C 1702.14 1046.75 1703.56 1046.46 1705.68 1047.13 C 1713.05 1045.79 1724.32 1047.68 1731.75 1047.75 C 1753.07 1047.96 1815.16 1064.63 1824.09 1085.99 C 1823.48 1089.1 1823.48 1088.45 1821.45 1091.16 C 1823.62 1089.68 1824.99 1088.33 1827.56 1088.23 C 1826.38 1092.84 1824.75 1090.87 1823.16 1096.01 L 1828.9 1091.58 C 1831.53 1092.16 1832.25 1093.31 1833.64 1095.75 C 1871.33 1161.71 1806.49 1220.31 1751.79 1250.61 C 1749.85 1251.69 1747.89 1252.74 1745.91 1253.77 C 1744.71 1257.2 1745.77 1256.02 1742.98 1257.75 C 1740.68 1257.28 1741.06 1257.55 1739.05 1256.51 C 1719.22 1265.29 1700.94 1273.35 1679.72 1280.44 C 1605.26 1305.3 1525.69 1315.25 1447.34 1312.78 C 1422.49 1312 1394.39 1305.47 1370.24 1300.25 C 1357.05 1296.84 1342.97 1293.79 1330.35 1288.92 C 1328.92 1288.36 1327.48 1287.79 1326.06 1287.2 C 1323.55 1285.31 1318.72 1279.43 1316.43 1276.81 L 1311.05 1270.29 C 1332.96 1268.11 1386.19 1249.9 1410.16 1241.42 C 1500.87 1209.33 1608.53 1166.17 1673.2 1092.19 C 1683.77 1080.11 1693.11 1061.35 1700.09 1047.17 z" fill="rgb(255,255,255)" transform="translate(0,0)"></path>
<path d="M 1316.43 1276.81 C 1365.78 1262.83 1414.49 1246.73 1462.45 1228.57 C 1480.11 1221.62 1497.58 1214.23 1514.86 1206.39 C 1553.28 1189.1 1546.85 1187.62 1589.95 1192.42 C 1653.72 1199.52 1689.03 1218.42 1739.05 1256.51 C 1719.22 1265.29 1700.94 1273.35 1679.72 1280.44 C 1605.26 1305.3 1525.69 1315.25 1447.34 1312.78 C 1422.49 1312 1394.39 1305.47 1370.24 1300.25 C 1357.05 1296.84 1342.97 1293.79 1330.35 1288.92 C 1328.92 1288.36 1327.48 1287.79 1326.06 1287.2 C 1323.55 1285.31 1318.72 1279.43 1316.43 1276.81 z" fill="rgb(255,255,255)" transform="translate(0,0)"></path>
<path d="M 1823.16 1096.01 L 1828.9 1091.58 C 1831.53 1092.16 1832.25 1093.31 1833.64 1095.75 C 1871.33 1161.71 1806.49 1220.31 1751.79 1250.61 C 1749.85 1251.69 1747.89 1252.74 1745.91 1253.77 C 1739.8 1250.01 1728.91 1241.32 1722.05 1236.65 C 1686.68 1212.57 1663.01 1201.82 1621.52 1192.15 C 1675.48 1178.31 1788.98 1138.08 1823.16 1096.01 z" fill="rgb(255,255,255)" transform="translate(0,0)"></path>
<path d="M 1700.09 1047.17 C 1702.14 1046.75 1703.56 1046.46 1705.68 1047.13 C 1699.56 1059.75 1693.36 1072.68 1685.07 1084.02 C 1655.49 1124.48 1603.7 1161.83 1559.48 1184.93 C 1577.12 1185.39 1596.99 1189.33 1613.42 1188.52 C 1618.98 1188.25 1643.48 1180.26 1650.09 1178.19 C 1699.78 1162.58 1775.91 1134.88 1813.29 1099.36 C 1816.07 1096.69 1818.79 1093.96 1821.45 1091.16 C 1823.62 1089.68 1824.99 1088.33 1827.56 1088.23 C 1826.38 1092.84 1824.75 1090.87 1823.16 1096.01 C 1788.98 1138.08 1675.48 1178.31 1621.52 1192.15 C 1663.01 1201.82 1686.68 1212.57 1722.05 1236.65 C 1728.91 1241.32 1739.8 1250.01 1745.91 1253.77 C 1744.71 1257.2 1745.77 1256.02 1742.98 1257.75 C 1740.68 1257.28 1741.06 1257.55 1739.05 1256.51 C 1689.03 1218.42 1653.72 1199.52 1589.95 1192.42 C 1546.85 1187.62 1553.28 1189.1 1514.86 1206.39 C 1497.58 1214.23 1480.11 1221.62 1462.45 1228.57 C 1414.49 1246.73 1365.78 1262.83 1316.43 1276.81 L 1311.05 1270.29 C 1332.96 1268.11 1386.19 1249.9 1410.16 1241.42 C 1500.87 1209.33 1608.53 1166.17 1673.2 1092.19 C 1683.77 1080.11 1693.11 1061.35 1700.09 1047.17 z" fill="rgb(143,194,213)" transform="translate(0,0)"></path>
<path d="M 1362.2 1339.1 C 1367.45 1337.27 1402.14 1338.01 1409.57 1338.05 C 1428.2 1338.15 1462.15 1333.49 1479.34 1334.31 C 1511.63 1335.85 1564.75 1356.28 1593.85 1370.82 C 1634.8 1391.28 1688.66 1426.66 1706 1470.65 C 1706.02 1470.75 1706.05 1470.86 1706.08 1470.96 L 1706.29 1472.7 L 1705.29 1473.3 C 1707.68 1474.02 1709.08 1474.44 1710.23 1477.33 C 1717.91 1496.65 1721.6 1514.62 1714.9 1535.57 C 1705.68 1564.36 1667.5 1591.2 1637.04 1589.46 C 1636.17 1589.41 1633.94 1585.9 1633.23 1584.92 L 1631.48 1587.18 L 1632.82 1589.69 L 1632.18 1590.85 C 1566.25 1597.6 1508.69 1573.86 1454.07 1538.83 C 1451.8 1532.93 1449.46 1525.06 1447.83 1518.84 C 1437.64 1479.91 1422.78 1446.34 1405.38 1410.3 C 1401.89 1405.21 1399.99 1400.51 1397.44 1394.92 C 1388.59 1383.69 1370.73 1352.76 1362.2 1339.1 z" fill="rgb(255,255,255)" transform="translate(0,0)"></path>
<path d="M 1405.38 1410.3 L 1406.18 1410.8 C 1422.33 1420.94 1430.61 1429.56 1449.97 1439.82 C 1464.24 1447.38 1492.98 1455.79 1501.73 1462.22 C 1510.59 1458.13 1512.01 1470.45 1516.56 1468.87 C 1565.55 1506.8 1597.44 1535.02 1633.23 1584.92 L 1631.48 1587.18 L 1632.82 1589.69 L 1632.18 1590.85 C 1566.25 1597.6 1508.69 1573.86 1454.07 1538.83 C 1451.8 1532.93 1449.46 1525.06 1447.83 1518.84 C 1437.64 1479.91 1422.78 1446.34 1405.38 1410.3 z" fill="rgb(255,255,255)" transform="translate(0,0)"></path>
<path d="M 1501.73 1462.22 C 1510.59 1458.13 1512.01 1470.45 1516.56 1468.87 C 1565.55 1506.8 1597.44 1535.02 1633.23 1584.92 L 1631.48 1587.18 C 1602.4 1547.46 1566.92 1516.25 1528.81 1485.69 C 1519.23 1478.02 1510.44 1471 1501.73 1462.22 z" fill="url(#Gradient1)" transform="translate(0,0)"></path>
<path d="M 1397.44 1394.92 C 1409.26 1403.26 1427.02 1418.93 1437.91 1425.65 C 1507.96 1468.87 1606.12 1474.57 1686.76 1471.51 C 1689.52 1472.18 1691.43 1472.34 1693.8 1473.75 L 1705.29 1473.3 C 1707.68 1474.02 1709.08 1474.44 1710.23 1477.33 C 1717.91 1496.65 1721.6 1514.62 1714.9 1535.57 C 1705.68 1564.36 1667.5 1591.2 1637.04 1589.46 C 1636.17 1589.41 1633.94 1585.9 1633.23 1584.92 C 1597.44 1535.02 1565.55 1506.8 1516.56 1468.87 C 1512.01 1470.45 1510.59 1458.13 1501.73 1462.22 C 1492.98 1455.79 1464.24 1447.38 1449.97 1439.82 C 1430.61 1429.56 1422.33 1420.94 1406.18 1410.8 L 1405.38 1410.3 C 1401.89 1405.21 1399.99 1400.51 1397.44 1394.92 z" fill="rgb(255,255,255)" transform="translate(0,0)"></path>
<path d="M 1397.44 1394.92 C 1409.26 1403.26 1427.02 1418.93 1437.91 1425.65 C 1507.96 1468.87 1606.12 1474.57 1686.76 1471.51 C 1689.52 1472.18 1691.43 1472.34 1693.8 1473.75 C 1643.3 1476.61 1583.31 1477.15 1533.8 1467.26 L 1531.61 1468 C 1534.04 1470.92 1649.5 1504.62 1664.79 1506.81 C 1668.19 1507.3 1674.31 1508.26 1677.2 1510.49 C 1669.99 1510.67 1667.02 1508.71 1660.27 1507.24 C 1614.21 1497.21 1562.07 1482.98 1517.39 1468.18 L 1516.56 1468.87 C 1512.01 1470.45 1510.59 1458.13 1501.73 1462.22 C 1492.98 1455.79 1464.24 1447.38 1449.97 1439.82 C 1430.61 1429.56 1422.33 1420.94 1406.18 1410.8 L 1405.38 1410.3 C 1401.89 1405.21 1399.99 1400.51 1397.44 1394.92 z" fill="rgb(143,194,213)" transform="translate(0,0)"></path>
<path d="M 1686.76 1471.51 C 1692.48 1470.95 1700.15 1471.04 1706.08 1470.96 L 1706.29 1472.7 L 1705.29 1473.3 L 1693.8 1473.75 C 1691.43 1472.34 1689.52 1472.18 1686.76 1471.51 z" fill="rgb(134,178,190)" transform="translate(0,0)"></path>
<path d="M 1295.37 1251.85 C 1306.9 1239.28 1320.73 1227.87 1333.01 1216.25 C 1376.77 1174.85 1427.17 1138.6 1479.98 1109.79 C 1538.36 1077.94 1600.56 1055.21 1667 1048.79 C 1673.93 1048.12 1693.96 1045.33 1700.09 1047.17 C 1693.11 1061.35 1683.77 1080.11 1673.2 1092.19 C 1608.53 1166.17 1500.87 1209.33 1410.16 1241.42 C 1386.19 1249.9 1332.96 1268.11 1311.05 1270.29 C 1305.74 1264.22 1300.51 1258.07 1295.37 1251.85 z" fill="rgb(255,255,255)" transform="translate(0,0)"></path>
<path d="M 1334.39 1298.55 C 1343.56 1300.1 1355.95 1304.08 1365.34 1306.42 C 1380.08 1309.95 1394.96 1312.82 1409.95 1315.01 C 1401.4 1317.19 1361.25 1318.29 1348.95 1318.86 C 1343.78 1311.99 1339.08 1305.79 1334.39 1298.55 z" fill="rgb(255,255,255)" transform="translate(0,0)"></path>
<metadata><recraft-signature>{"signed_by": "recraft", "signature_b64": "Sepv+BNgg+h3iZ5OliFiLukwE7Un/eA0qQ+ZmTZ7zBcv5uoq4MOK18VdXiwENG/J88SiOHjwldUA6CELP7clBQ==", "signing_algo": "Ed25519", "generation_timestamp": 1777548368, "identifier": "9666cd4b-3a8e-40f6-a969-dca98fd56180"}</recraft-signature></metadata></svg>