<svg xmlns="http://www.w3.org/2000/svg" height="1024" preserveAspectRatio="none" style="display: block;" version="1.1" viewBox="0 0 2048 2048" width="1024">
<defs>
	<linearGradient gradientUnits="userSpaceOnUse" id="Gradient1" x1="933.653" x2="881.347" y1="388.909" y2="458.091">
		<stop class="stop0" offset="0" stop-color="rgb(250,244,210)" stop-opacity="1"></stop>
		<stop class="stop1" offset="1" stop-color="rgb(255,255,255)" stop-opacity="1"></stop>
	</linearGradient>
</defs>
<path d="M 0 0 L 2048 0 L 2048 2048 L 0 2048 L 0 0 z" fill="rgb(254,254,254)" transform="translate(0,0)"></path>
<path d="M 633.751 83.393 C 665.218 78.6718 710.007 90.6047 738.814 102.941 C 832.614 143.11 898.767 222.401 935.579 316.301 C 1057.74 329.84 1152.83 381.332 1242.62 462.265 C 1257.57 379.415 1248.87 281.805 1203.47 209.303 C 1190.48 208.431 1175.32 204.219 1162.57 201.273 C 1125.67 192.557 1078.43 177.198 1054.14 145.837 C 1025.56 108.957 1062.06 97.4299 1093.01 104.685 C 1147.21 117.39 1192.78 154.672 1221.69 200.07 C 1274.44 282.922 1278.73 384.985 1260.29 478.616 C 1267.38 488.596 1280.08 502.07 1288.33 512.919 C 1311.86 544.015 1332.18 577.42 1348.96 612.619 C 1357.41 607.988 1367.28 600.495 1375.38 594.913 C 1408.37 572.184 1452.8 556.862 1491.9 572.859 C 1516.95 583.104 1534.8 607.776 1544.64 632.705 C 1565.96 686.748 1562.67 748.803 1544.21 803.223 C 1536.99 824.347 1526.68 845.373 1518.02 865.947 C 1519.62 864.496 1521.25 863.072 1522.91 861.675 C 1589.81 805.585 1651 768.682 1737.91 749.923 C 1849.62 725.808 1920.63 781.302 1909.29 899.102 C 1901.03 984.857 1846.33 1062.4 1780.62 1117.54 C 1682.5 1199.88 1519.64 1254.76 1390.73 1242.82 C 1443.13 1310.19 1477.6 1361.93 1499.91 1446.28 C 1524.3 1538.47 1519.62 1659 1472.79 1742.63 C 1476.82 1758.9 1499.81 1847.42 1493.72 1858.18 C 1492.39 1860.53 1490.72 1861.45 1488.14 1862 C 1474.56 1864.93 1410.15 1816.85 1397.32 1807.05 C 1384.05 1813 1373.11 1817.75 1359.23 1821.96 C 1335.72 1829.54 1317.28 1833.55 1292.86 1837.73 C 1302.2 1849.57 1369.08 1942.63 1369.16 1951.32 C 1369.18 1953.6 1368.05 1955.81 1366.57 1957.48 C 1357.64 1967.57 1331.59 1969.7 1318.98 1970.62 C 1297.19 1972.23 1235.95 1972.44 1220.27 1957.65 C 1218.38 1955.86 1217.58 1954.24 1217.44 1951.62 C 1224.09 1930.46 1299.34 1929.85 1317.31 1931.21 C 1311.72 1922.31 1303.47 1911.28 1297.25 1902.22 C 1283.65 1882.74 1270.76 1862.78 1258.59 1842.37 C 1167.48 1847.5 1110.4 1830.86 1026.97 1799.43 C 1037.97 1821.49 1050.88 1842.56 1065.57 1862.37 C 1074.73 1874.69 1118.58 1922.22 1120.08 1930.27 C 1120.58 1932.93 1120.19 1934.18 1118.58 1936.34 C 1114.44 1941.89 1101.57 1944.45 1094.97 1945.8 C 1067.91 1951.31 986.133 1956.46 964.715 1941.26 C 961.938 1939.3 960.93 1937.48 960.414 1934.07 C 966.339 1910.72 1048.87 1911.31 1068.71 1912.15 C 1041.03 1877.44 1004.97 1824.36 991.096 1783.05 C 948.994 1756.84 918.06 1733.44 884.559 1696.63 C 800.934 1604.74 762.458 1480.7 760.77 1357.91 C 760.259 1320.73 763.039 1283.95 765.266 1246.35 C 700.335 1278.84 656.707 1299.07 586.294 1317.09 C 373.681 1371.48 145.519 1309.7 249.154 1037.77 C 268.822 986.16 292.464 946.962 321.865 898.552 C 290.089 821.344 304.485 765.097 331.623 689.091 C 338.727 669.198 348.917 654.926 370.579 650.37 C 371.536 650.169 379.146 634.9 379.979 633.219 C 481.305 437.94 694.425 308.563 915.238 316.026 C 883.897 246.099 833.637 183.643 769.538 141.278 C 765.024 143.543 757.633 146.73 752.1 147.583 C 708.377 154.32 643.508 153.113 605.053 130.611 C 598.674 126.525 593.122 120.128 591.768 112.617 C 587.463 88.7346 616.168 85.4225 633.751 83.393 z" fill="rgb(73,34,33)" transform="translate(0,0)"></path>
<path d="M 871.564 333.426 C 885.804 332.115 909.135 332.642 923.836 334.377 C 1024.99 346.315 1126.45 385.141 1204.34 451.784 C 1215.66 461.469 1228.55 472.505 1237.75 483.376 C 1236.44 495.403 1222.66 520.838 1242.74 518.973 C 1248.82 515.398 1249.91 507.676 1252.13 500.617 C 1256.49 504.725 1259.81 508.556 1263.59 513.203 C 1348.2 619.309 1387.98 754.29 1374.43 889.325 C 1363.83 992.77 1305.61 1089.19 1217.6 1144.17 C 1117.24 1206.87 985.521 1229.24 869.3 1217.11 C 867.124 1217 864.949 1216.85 862.778 1216.67 C 830.896 1214.07 799.635 1207 768.731 1199.32 C 643.064 1168.08 516.496 1097.68 431.755 998.516 C 396.024 957.724 367.763 907.29 360.591 852.981 C 358.783 839.293 358.352 827.104 363.892 814.338 C 373.165 792.972 423.894 720.281 372.408 717.938 C 375.052 711.857 384.162 688.115 384.064 682.587 C 383.719 663.09 389.285 656.2 398.444 639.002 C 418.843 599.809 444.027 563.3 473.417 530.31 C 545.533 448.839 652.58 379.796 758.009 350.75 C 790.899 341.688 837.493 335.512 871.564 333.426 z" fill="rgb(254,221,106)" transform="translate(0,0)"></path>
<path d="M 978.659 532.411 C 978.723 532.401 978.786 532.39 978.85 532.38 C 1033.23 527.964 1087.19 544.949 1129.24 579.719 C 1225.01 657.844 1246.33 812.203 1166.34 909.541 C 1126.28 958.578 1068.28 989.577 1005.25 995.649 C 881.729 1005.09 782.682 921.626 768.859 798.971 C 754.827 674.465 852.034 544.516 978.659 532.411 z" fill="rgb(73,34,33)" transform="translate(0,0)"></path>
<path d="M 981.564 550.393 C 981.837 550.346 982.111 550.299 982.384 550.251 C 1096.45 538.804 1181.68 635.443 1195.75 737.365 C 1203.84 792.276 1189.39 848.124 1155.68 892.221 C 1117.58 942.384 1066.74 968.528 1005.25 976.867 C 950.036 979.276 905.653 969.423 861.152 934.356 C 819.918 901.638 793.436 853.826 787.573 801.516 C 773.575 682.085 859.76 563.767 981.564 550.393 z" fill="rgb(254,254,254)" transform="translate(0,0)"></path>
<path d="M 1083.1 699.298 C 1094.67 698.454 1106.19 701.393 1115.94 707.671 C 1130.01 716.549 1137.92 730.903 1140.93 746.872 C 1152.97 810.732 1103.73 890.005 1039.23 902.825 C 1003.8 906.433 985.489 890.244 980.542 855.46 C 974.743 814.678 992.699 774.232 1016.41 742.098 C 1033.86 718.444 1053.29 703.573 1083.1 699.298 z" fill="rgb(73,34,33)" transform="translate(0,0)"></path>
<path d="M 1065.28 711.257 C 1117.5 708.414 1132.77 762.715 1077.8 781.487 C 1017.76 792.472 1013.88 719.625 1065.28 711.257 z" fill="rgb(254,254,254)" transform="translate(0,0)"></path>
<path d="M 678.298 443.419 C 746.912 441.104 793.664 481.314 798.944 549.779 C 804.784 625.518 764.324 695.364 718.375 752.044 C 669.567 812.25 546.124 889.733 474.428 828.363 C 493.115 834.897 488.06 836.605 511.968 840.702 C 537.142 845.509 580.288 838.171 601.873 826.272 C 551.549 833.882 511.464 832.029 471.732 795.233 C 393.29 722.586 435.338 610.913 496.271 542.336 C 544.145 488.455 604.52 447.846 678.298 443.419 z" fill="rgb(73,34,33)" transform="translate(0,0)"></path>
<path d="M 683.965 458.441 C 761.231 460.379 790.127 513.756 782.668 586.441 C 776.329 648.208 738.462 706.226 698.685 752.201 C 661.859 794.765 604.178 822.998 547.089 816.373 C 522.916 810.802 502.985 803.919 484.034 787.131 C 460.627 766.605 446.501 737.497 444.859 706.409 C 441.667 648.661 477.031 587.654 514.643 546.081 C 558.427 497.687 617.538 461.68 683.965 458.441 z" fill="rgb(254,254,254)" transform="translate(0,0)"></path>
<path d="M 690.9 567.249 C 758.764 560.517 761.33 640.779 732.276 681.938 C 707.184 717.484 683.293 748.073 638.643 758.235 C 612.267 761.782 584.34 751.24 579.276 722.081 C 571.066 676.713 597.479 641.059 625.542 609.258 C 646.973 584.972 657.045 573.917 690.9 567.249 z" fill="rgb(73,34,33)" transform="translate(0,0)"></path>
<path d="M 678.025 579.411 C 733.761 583.299 708.385 644.384 665.297 647.385 C 617.228 644.368 626.286 585.664 678.025 579.411 z" fill="rgb(254,254,254)" transform="translate(0,0)"></path>
<path d="M 888.395 407.142 C 879.116 409.052 853.602 414.525 845.78 409.656 C 841.075 394.336 898.265 366.179 910.644 362.065 C 946.925 350.008 989.321 346.135 1025 362.48 C 1028.72 364.187 1032.29 365.828 1033.65 369.731 C 1033.46 372.341 1033.82 374.386 1031.59 376.121 C 1020.98 384.397 976.83 382.144 968.152 386.743 C 974.649 388.353 982.013 389.998 988.275 392.136 C 979.994 392.802 958.797 393.988 951.935 396.629 L 952.097 398.432 C 943.321 405.887 919.533 411.757 916.182 423.442 L 916.407 424.913 C 925.933 427.352 919.635 425.513 926.189 430.625 C 934.725 430.091 966.508 421.667 968.599 432.814 C 965.557 437.314 942.9 449.167 936.862 451.288 C 922.683 456.269 893.607 499.775 882.173 492.409 C 877.354 479.448 894.304 459.753 902.238 450.804 C 884.566 457.055 869.547 465.865 853.295 474.815 C 848.455 477.481 845.37 476.993 841.616 472.857 C 834.597 451.512 873.384 418.212 888.395 407.142 z" fill="rgb(73,34,33)" transform="translate(0,0)"></path>
<path d="M 872.3 398.303 C 885.245 387.173 900.572 381.606 916.313 375.704 C 956.915 360.481 991.857 360.173 1033.65 369.731 C 1033.46 372.341 1033.82 374.386 1031.59 376.121 C 1020.98 384.397 976.83 382.144 968.152 386.743 C 938.446 384.324 901.31 390.339 872.3 398.303 z" fill="rgb(254,254,254)" transform="translate(0,0)"></path>
<path d="M 863.496 451.311 C 888.498 421.427 913.61 404.423 951.935 396.629 L 952.097 398.432 C 943.321 405.887 919.533 411.757 916.182 423.442 L 916.407 424.913 C 925.933 427.352 919.635 425.513 926.189 430.625 C 900.536 434.918 887.237 441.564 863.496 451.311 z" fill="url(#Gradient1)" transform="translate(0,0)"></path>
<path d="M 663.12 967.276 C 698.092 965.491 738.24 996.518 751.495 1027.77 C 762.324 1053.3 752.654 1072.86 723.842 1059.99 C 709.808 1052.47 696.707 1045.33 681.618 1039.06 C 665.51 1031.92 643.536 1029.02 628.788 1019.54 C 620.004 1013.88 629.75 990.62 635.033 984.31 C 644.292 973.249 649.156 969.458 663.12 967.276 z" fill="rgb(73,34,33)" transform="translate(0,0)"></path>
<path d="M 661.153 978.196 C 681.925 977.189 699.513 985.995 715.334 998.775 C 725.119 1006.68 751.965 1036.37 740.379 1048.69 C 734.402 1050.87 730.188 1048.39 724.243 1046.07 C 701.042 1034.31 679.166 1023.38 653.542 1018.28 C 647.719 1017.12 639.588 1015.92 636.258 1010.81 C 633.722 998.743 650.184 981.677 661.153 978.196 z" fill="rgb(205,119,116)" transform="translate(0,0)"></path>
<path d="M 1066.9 430.941 C 1070.1 430.822 1070.14 430.849 1073.28 431.524 C 1082.23 437.929 1088.4 457.927 1096.5 466.428 C 1103.42 473.687 1110.98 480.469 1118.81 486.729 C 1128.63 494.577 1148.94 508.513 1126.72 516.652 C 1100.32 521.482 1081.54 506.672 1069.06 484.999 C 1060.81 470.674 1047.86 441.57 1066.9 430.941 z" fill="rgb(73,34,33)" transform="translate(0,0)"></path>
<path d="M 813.817 375.057 C 819.888 374.373 820.795 373.563 824.954 378.169 C 828.792 392.375 810.85 406.274 799.689 412.254 C 777.336 424.234 756.067 426.643 731.823 419.365 C 724.085 415.52 712.948 410.819 713.775 400.937 C 715.584 397.919 717.57 395.592 721.213 395.247 C 732.817 394.145 744.836 394.757 756.484 393.361 C 777.816 390.804 794.319 382.268 813.817 375.057 z" fill="rgb(73,34,33)" transform="translate(0,0)"></path>
<path d="M 1168.28 984.116 C 1171.79 985.284 1172.19 985.297 1173.15 988.442 C 1172.03 992.053 1169.05 994.442 1166.32 997.185 C 1171.41 1000.16 1173.69 1000.2 1173.69 1006.19 C 1169.93 1013.26 1158.23 1014.98 1151.49 1012.29 C 1146.29 1006.9 1138.84 990.652 1148.22 987.24 C 1152.61 987.518 1160.03 993.612 1164.1 996.495 L 1168.28 984.116 z" fill="rgb(16,11,6)" transform="translate(0,0)"></path>
<path d="M 1148.59 990.321 C 1152.32 991.073 1167.54 999.033 1170.72 1003.04 C 1171.18 1006.58 1171.29 1005.22 1168.5 1008.95 C 1154.63 1015.49 1143.72 1004.65 1148.59 990.321 z" fill="rgb(254,240,155)" transform="translate(0,0)"></path>
<path d="M 1104.13 1001.1 C 1121.66 999.976 1111.53 1021.92 1098.36 1026.1 C 1094.52 1024.89 1089.6 1022.42 1088.62 1018.41 C 1085.95 1007.49 1097.45 1003.41 1104.13 1001.1 z" fill="rgb(16,11,6)" transform="translate(0,0)"></path>
<path d="M 1107.82 1003.37 C 1109.76 1004.04 1109.05 1003.94 1110.74 1006.06 C 1111.52 1014.3 1103.88 1021.52 1095.8 1022.41 C 1092.46 1018.62 1090.18 1016.18 1091.67 1010.8 C 1095.85 1005.19 1101.01 1004.9 1107.82 1003.37 z" fill="rgb(254,240,155)" transform="translate(0,0)"></path>
<path d="M 417.087 783.053 C 434.047 781.533 444.072 799.68 430.141 806.258 C 426.31 804.745 414.176 795.887 410.463 792.885 C 409.586 792.176 410.094 790.752 410.268 789.369 C 412.446 785.876 413.574 785.461 417.087 783.053 z" fill="rgb(16,11,6)" transform="translate(0,0)"></path>
<path d="M 419.425 784.918 C 430.421 784.981 437.807 796.672 430.781 802.842 C 427.366 802.74 427.2 802.207 424.446 800.186 C 415.926 791.838 422.734 798.492 422.429 791.083 L 420.583 790.898 C 417.927 794.304 417.57 795.084 413.568 794.057 C 412.476 791.98 412.974 792.58 413.055 789.646 C 415.233 786.131 415.019 787.072 419.425 784.918 z" fill="rgb(254,221,106)" transform="translate(0,0)"></path>
<path d="M 1149.92 1028.03 L 1163.19 1029.36 C 1161.18 1037.78 1161.25 1041.99 1154.77 1047.42 C 1138.55 1049.7 1135.54 1034.12 1149.92 1028.03 z" fill="rgb(16,11,6)" transform="translate(0,0)"></path>
<path d="M 1146.89 1031.01 C 1152.39 1030.73 1157.78 1029.54 1159.49 1035.68 C 1158.22 1040.05 1157.87 1040.28 1155.02 1043.98 C 1150.88 1045.1 1149.94 1045.46 1146.08 1043.9 C 1141.22 1038.78 1142.8 1035.97 1146.89 1031.01 z" fill="rgb(254,240,155)" transform="translate(0,0)"></path>
<path d="M 425.575 824.496 C 435.845 828.521 431.615 840.536 424.943 846.32 C 422.069 845.603 422.146 845.47 419.644 843.785 C 414.782 835.964 419.363 829.568 425.575 824.496 z" fill="rgb(16,11,6)" transform="translate(0,0)"></path>
<path d="M 425.077 827.587 L 426.803 828.252 C 431.106 833.647 428.387 837.819 424.62 842.597 L 422.505 841.911 C 418.449 836.38 421.343 832.427 425.077 827.587 z" fill="rgb(254,221,106)" transform="translate(0,0)"></path>
<path d="M 399.284 811.066 C 405.421 810.597 408.472 810.79 410.114 817.426 C 408.719 822.248 409.65 820.494 405.855 824.038 C 400.021 824.514 396.828 824.938 394.937 818.672 C 395.716 814.472 396.187 814.3 399.284 811.066 z" fill="rgb(16,11,6)" transform="translate(0,0)"></path>
<path d="M 399.302 813.097 C 401.43 811.662 404.316 812.203 405.779 814.311 C 407.243 816.42 406.74 819.313 404.652 820.804 C 403.276 821.787 401.477 821.954 399.944 821.24 C 398.411 820.525 397.381 819.042 397.248 817.356 C 397.115 815.67 397.9 814.043 399.302 813.097 z" fill="rgb(254,221,106)" transform="translate(0,0)"></path>
<path d="M 363.491 936.652 C 365.416 938.612 368.814 945.248 370.276 947.986 C 438.188 1075.14 598.434 1174.84 734.645 1213.75 C 699.481 1230.16 673.841 1239.53 637.255 1250.46 C 622.877 1254.86 608.337 1258.7 593.667 1261.99 C 518.598 1278.39 412.082 1289.04 343.846 1246.08 C 318.645 1230.21 301.026 1203.11 295.379 1173.59 C 283.026 1109 313.323 1037.16 340.617 979.662 C 346.63 966.994 356.046 947.919 363.491 936.652 z" fill="rgb(254,254,254)" transform="translate(0,0)"></path>
<path d="M 1775.07 766.417 C 1777.55 766.076 1782.49 766.044 1785.14 765.945 C 1768.92 859.816 1708.55 986.927 1634.43 1048.46 C 1557.69 1112.17 1422.49 1149.81 1325.22 1168.92 C 1320.89 1169.6 1316.57 1169.81 1312.2 1170.11 C 1324.06 1162.63 1336.97 1157.28 1349.1 1149.25 C 1449.41 1082.92 1551.97 997.973 1606.61 888.615 C 1617.08 867.662 1627.59 836.186 1628.85 812.983 C 1678.45 787.215 1718.14 770.792 1775.07 766.417 z" fill="rgb(254,254,254)" transform="translate(0,0)"></path>
<path d="M 822.827 1474.38 C 927.233 1500.69 1055.47 1471.43 1146.86 1416.74 C 1159.93 1408.94 1172.6 1400.51 1184.83 1391.47 C 1189.69 1445.48 1188.63 1499.86 1181.68 1553.64 C 1166.62 1562.78 1147.27 1570.73 1130.8 1577.2 C 1052.26 1608.05 956.088 1618.17 873.665 1597.98 C 870.65 1597.24 867.64 1596.48 864.636 1595.7 C 855.101 1592.68 842.995 1587.38 834.035 1583.16 C 816.253 1550.84 800.077 1499.58 793.302 1463.25 C 803.123 1467.97 812.511 1471.08 822.827 1474.38 z" fill="rgb(254,221,106)" transform="translate(0,0)"></path>
<path d="M 793.302 1463.25 C 803.123 1467.97 812.511 1471.08 822.827 1474.38 C 824.326 1490.16 843.042 1536.67 849.226 1553.7 C 853.557 1565.63 863.918 1582.63 864.636 1595.7 C 855.101 1592.68 842.995 1587.38 834.035 1583.16 C 816.253 1550.84 800.077 1499.58 793.302 1463.25 z" fill="rgb(254,240,155)" transform="translate(0,0)"></path>
<path d="M 807.831 1230.82 C 925.891 1250.29 1040.34 1244.08 1153.14 1200.8 C 1181.11 1190.07 1202.84 1178.04 1228.69 1163.24 C 1212.92 1188.4 1206.22 1203.32 1186.39 1227.23 C 1177.19 1221.94 1164.36 1216.79 1156.82 1228.86 C 1151.95 1236.66 1155.03 1246.19 1157.5 1254.41 L 1158.13 1256.51 C 1067.66 1330.65 940.187 1378.95 822.547 1367.2 C 816.064 1366.49 809.594 1365.67 803.14 1364.73 C 795.96 1363.56 787.273 1361.4 780.055 1359.81 C 778.984 1314.68 776.373 1271.94 784.409 1226.66 L 807.831 1230.82 z" fill="rgb(254,221,106)" transform="translate(0,0)"></path>
<path d="M 784.409 1226.66 L 807.831 1230.82 C 804.082 1260.44 804.53 1293.85 803.891 1323.8 C 803.63 1336 804.278 1353.02 803.14 1364.73 C 795.96 1363.56 787.273 1361.4 780.055 1359.81 C 778.984 1314.68 776.373 1271.94 784.409 1226.66 z" fill="rgb(254,240,155)" transform="translate(0,0)"></path>
<path d="M 1474.57 1441.7 C 1483.46 1475.23 1489.04 1503.67 1490.58 1538.43 C 1490.86 1544.65 1492.15 1558.76 1490.47 1564.04 C 1485.42 1579.91 1474.67 1602.24 1466 1616.52 C 1412.22 1705.11 1314.2 1757.03 1216.36 1782.39 C 1180.58 1791.67 1127.73 1801.08 1090.56 1799.05 C 1081.6 1798.56 1026.16 1776.68 1017.31 1771.74 C 982.366 1755.63 947.095 1729.64 919.847 1702.45 C 943.043 1709.89 950.574 1711.62 974.636 1716.12 C 1023.99 1722.79 1052.96 1721.69 1101.97 1716.19 C 1093.22 1724.96 1065.27 1749.62 1077.09 1763.01 C 1087.46 1774.74 1101.95 1760.78 1110.23 1759.57 C 1109.22 1764.78 1107.29 1771.77 1110.79 1776.18 C 1124.43 1793.36 1139.56 1777.41 1148.71 1766.81 C 1160.26 1779.36 1168.38 1780.09 1181.14 1766.74 C 1201.91 1745.01 1214.18 1714.17 1221.78 1685.42 C 1322.49 1647.4 1412.37 1585.98 1459.06 1485.21 C 1465.28 1471.8 1471.03 1456.04 1474.57 1441.7 z" fill="rgb(254,221,106)" transform="translate(0,0)"></path>
<path d="M 919.847 1702.45 C 943.043 1709.89 950.574 1711.62 974.636 1716.12 C 979.859 1729.48 1018.58 1762.13 1019.73 1769.48 C 1018.36 1771.42 1019.2 1770.71 1017.31 1771.74 C 982.366 1755.63 947.095 1729.64 919.847 1702.45 z" fill="rgb(254,240,155)" transform="translate(0,0)"></path>
<path d="M 804.425 1381.53 C 901.525 1390.8 984.563 1376.69 1071.3 1331.48 C 1101.03 1315.98 1140.39 1296.01 1163.95 1271.76 C 1169.5 1292.75 1174.09 1313.98 1177.71 1335.39 C 1179.7 1346.82 1181.13 1360.81 1183.4 1371.7 C 1173.2 1377.93 1163.87 1385.24 1153.82 1391.55 C 1074.79 1441.19 981.803 1471.82 887.797 1466.92 C 867.358 1465.86 834.158 1463.74 816.012 1455.79 C 806.388 1452.61 798.959 1450.04 789.532 1446.08 C 785.369 1432.02 782.267 1392.58 780.886 1376.57 C 789.559 1378.87 795.555 1380.08 804.425 1381.53 z" fill="rgb(105,67,68)" transform="translate(0,0)"></path>
<path d="M 780.886 1376.57 C 789.559 1378.87 795.555 1380.08 804.425 1381.53 C 805.332 1399.28 806.418 1411.62 809.971 1429.44 C 811.214 1435.67 815.481 1451.22 816.012 1455.79 C 806.388 1452.61 798.959 1450.04 789.532 1446.08 C 785.369 1432.02 782.267 1392.58 780.886 1376.57 z" fill="rgb(254,240,155)" transform="translate(0,0)"></path>
<path d="M 1418.47 1318.73 C 1419.99 1320.45 1425.62 1330.04 1427.01 1332.32 C 1442.69 1358.04 1454.04 1383.79 1464.71 1411.83 C 1457.1 1447.7 1450.51 1472.1 1430.75 1503.76 C 1390.48 1568.32 1331.6 1615.03 1264.17 1648.9 C 1253.85 1654.3 1241.3 1660.27 1230.45 1664.37 C 1241.89 1625.88 1247.76 1578.23 1250.56 1538.27 C 1331.3 1487.88 1390.98 1409.85 1418.47 1318.73 z" fill="rgb(105,67,68)" transform="translate(0,0)"></path>
<path d="M 1787.21 948.74 C 1788.61 949.084 1803.24 955.376 1805.84 956.404 C 1825.78 964.298 1844.81 972.252 1864.2 981.488 C 1831.54 1057.98 1749.17 1127.27 1674.94 1162.01 C 1669.65 1157.9 1663.52 1153.96 1657.92 1150.21 C 1630.03 1132.62 1598.05 1115.66 1568.98 1100.27 C 1636.76 1061.73 1655.25 1044.44 1702.6 982.772 C 1720.9 980.144 1769.94 958.143 1787.21 948.74 z" fill="rgb(254,254,254)" transform="translate(0,0)"></path>
<path d="M 1620.84 818.845 C 1621.87 825.77 1617.39 839.145 1615.5 845.968 C 1584.72 956.931 1455.12 1070.41 1362.36 1131.88 C 1344.88 1143.46 1326.34 1153.44 1308.08 1163.72 L 1295.45 1154.82 L 1286.67 1147.89 C 1293.28 1141.63 1300.4 1131.2 1306.17 1123.9 C 1355.95 1061.37 1403.91 995.567 1463.24 941.445 C 1512.17 896.811 1563.43 852.17 1620.84 818.845 z" fill="rgb(254,254,254)" transform="translate(0,0)"></path>
<path d="M 1326.9 1210.86 C 1359.55 1241.29 1381.6 1268.22 1408.78 1302.97 C 1383.98 1380.31 1350.26 1434.65 1288.65 1487.99 C 1275.76 1499.24 1265.57 1507.07 1251.53 1516.77 C 1252 1460.38 1248.99 1404.68 1236.35 1349.5 C 1277.15 1308.77 1307.25 1265.45 1326.9 1210.86 z" fill="rgb(254,221,106)" transform="translate(0,0)"></path>
<path d="M 362.165 665.577 C 368.43 665.99 369.8 668.968 373.539 673.638 C 370.461 687.528 365.204 697.956 358.715 710.501 C 337.078 752.33 322.823 775.082 327.659 823.07 C 330.106 817.197 332.805 804.417 334.68 797.653 C 338.915 782.696 344.826 768.266 352.301 754.636 C 356.189 747.651 369.979 727.253 379.315 733.097 C 385.789 754.474 355.181 792.488 348.639 815.029 C 340.335 843.635 343.078 863.873 348.891 892.987 C 350.577 901.429 352.32 911.582 356.163 919.171 C 344.274 933.578 326.849 965.935 318.514 983.358 C 310.708 999.946 303.478 1016.8 296.837 1033.89 C 275.442 1087.52 261.25 1136.75 280.584 1194.83 C 291.068 1226.33 317.942 1257.47 348.542 1270.99 C 454.782 1317.93 595.312 1285.88 698.78 1247.03 C 709.239 1242.89 759.573 1217.65 766.366 1223.76 C 766.271 1224.05 766.212 1224.36 766.081 1224.63 C 759.654 1238.21 656.577 1277.67 636.47 1284.17 C 542.685 1314.49 409.791 1337.02 318.401 1289.66 C 287.422 1273.6 261.021 1246.46 250.661 1212.63 C 227.83 1138.09 263.19 1037.81 297.037 970.748 C 309.908 945.245 325.288 921.229 338.587 895.99 C 324.207 875.093 315.406 823.705 317.442 798.676 C 320.366 762.719 335.387 689.769 362.165 665.577 z" fill="rgb(105,67,68)" transform="translate(0,0)"></path>
<path d="M 1559.21 1104.89 C 1571.37 1107.6 1656.7 1157.39 1668.17 1165.99 C 1601.19 1200.06 1509.66 1221.82 1434.48 1224.13 C 1417.55 1224.89 1388.08 1224.08 1371.32 1221.73 C 1356.07 1206.35 1340.42 1191.37 1324.4 1176.79 C 1396.15 1164.62 1492.62 1133.93 1559.21 1104.89 z" fill="rgb(254,254,254)" transform="translate(0,0)"></path>
<path d="M 881.995 1617.31 C 899.908 1618.78 916.461 1621.57 934.855 1622.79 C 1017.62 1628.25 1103.2 1612.72 1177.69 1575.32 C 1171.2 1605.39 1167.79 1620.57 1156.63 1649.8 C 1131.99 1650.38 1095.03 1650.94 1075.32 1668.89 C 1068.12 1675.44 1070.45 1689.04 1077.96 1694.33 C 1085.42 1699.95 1097.8 1700.24 1106.86 1700.9 C 1049.42 1707.35 988.718 1707.4 933.081 1690.01 C 921.002 1686.21 908.865 1682.59 896.673 1679.17 C 881.106 1664.36 853.824 1622.71 843.61 1603.74 C 849.009 1605.97 880.103 1614.77 881.995 1617.31 z" fill="rgb(105,67,68)" transform="translate(0,0)"></path>
<path d="M 843.61 1603.74 C 849.009 1605.97 880.103 1614.77 881.995 1617.31 C 891.146 1637.7 903.466 1654.63 917.549 1671.8 C 921.736 1676.9 929.7 1685.4 933.081 1690.01 C 921.002 1686.21 908.865 1682.59 896.673 1679.17 C 881.106 1664.36 853.824 1622.71 843.61 1603.74 z" fill="rgb(254,240,155)" transform="translate(0,0)"></path>
<path d="M 1168.52 1231.05 C 1188.57 1233.33 1191.54 1255.95 1197.39 1272.6 C 1225.44 1353.95 1237.74 1439.89 1233.66 1525.84 C 1230.96 1592.15 1216.06 1668.37 1187.82 1728.89 C 1185.05 1734.83 1169.72 1762.52 1162.77 1761.84 C 1159.58 1752.68 1181.1 1713.62 1176.69 1704.51 C 1174.97 1704.57 1172.83 1705.25 1172.3 1707.06 C 1168.41 1720.48 1139.02 1773.55 1121.72 1770.04 L 1120.65 1767.97 C 1121.08 1756.12 1133.06 1739.76 1139.64 1729.41 C 1141.65 1725.81 1144.29 1722.04 1143.96 1718.07 L 1142.59 1717.12 C 1130.71 1721.37 1103.05 1762.3 1086.77 1755.08 L 1086.32 1753.54 C 1092.02 1741.58 1111.89 1720.42 1122.57 1712.1 C 1131.79 1704.92 1140.03 1700.04 1148.23 1691.11 L 1149.34 1689.89 C 1135 1689.73 1097.9 1691.51 1087.87 1683.33 C 1086.39 1680.03 1086.56 1681.68 1087.22 1678.22 C 1093.81 1669.9 1141.68 1665.64 1154.65 1663.35 C 1160.81 1657.56 1162.84 1659.41 1165.07 1657.91 C 1173.67 1652.13 1181.07 1628.86 1183.84 1620.01 C 1213.46 1524.82 1209.6 1420.43 1190.25 1323.61 C 1184.55 1295.09 1176.48 1266.46 1165.13 1239.88 C 1163.98 1237.2 1163.88 1235.44 1164.79 1232.78 L 1168.52 1231.05 z" fill="rgb(105,67,68)" transform="translate(0,0)"></path>
<path d="M 1790.26 765.894 C 1830.68 765.868 1860.91 779.431 1878.51 817.62 C 1888.4 839.06 1889.34 856.623 1891.23 879.623 C 1885.49 884.375 1873.14 891.891 1866.56 896.057 C 1838.78 913.678 1810.05 929.764 1780.5 944.244 C 1759.9 954.463 1729.63 967.151 1707.85 973.542 C 1741.56 921.928 1786.7 828.124 1790.26 765.894 z" fill="rgb(254,254,254)" transform="translate(0,0)"></path>
<path d="M 1539.62 709.713 C 1543.28 733.316 1530.77 785.583 1523.07 808.205 C 1517.21 825.422 1505.38 846.309 1497.42 863.406 C 1492.1 874.845 1484.88 889.462 1477.23 899.642 C 1464.86 913.011 1447.63 926.153 1434.33 939.222 C 1406.39 966.716 1379.95 995.701 1355.14 1026.05 C 1355.61 1023.21 1360.14 1012.86 1361.95 1009.62 C 1379.35 979.829 1381.81 943.066 1396.21 913.199 C 1413.5 877.358 1422.58 845.469 1431.06 806.89 C 1467.86 791.342 1515.74 742.313 1539.62 709.713 z" fill="rgb(254,254,254)" transform="translate(0,0)"></path>
<path d="M 1448.62 585.339 C 1449.11 585.278 1449.59 585.218 1450.07 585.157 C 1467.6 583.069 1485.22 588.18 1498.9 599.32 C 1528.02 623.264 1535.86 662.4 1539.51 697.832 C 1518.54 724.622 1507.97 738.481 1482.11 761.717 C 1464.83 776.865 1451.75 786.468 1432.28 798.414 C 1446.89 722.426 1447.49 663.499 1434.35 587.846 C 1438.97 586.849 1443.93 586.117 1448.62 585.339 z" fill="rgb(254,254,254)" transform="translate(0,0)"></path>
<path d="M 1486.44 1611.66 C 1488.12 1617.29 1485.62 1634.44 1484.54 1640.35 C 1475.13 1691.57 1456.88 1744.35 1410.84 1774.07 C 1337.11 1821.64 1228.33 1829.87 1144.22 1814.32 C 1141.17 1814.07 1140.16 1813.76 1137.23 1813.03 C 1139.67 1811.59 1158.28 1809.82 1162.55 1809.27 C 1184.3 1806.59 1205.87 1802.66 1227.17 1797.51 C 1305.64 1778.5 1395.51 1732.08 1447.48 1669.29 C 1464.46 1648.78 1473.02 1633.64 1486.44 1611.66 z" fill="rgb(105,67,68)" transform="translate(0,0)"></path>
<path d="M 1425.15 590.914 C 1427.51 590.812 1426.39 590.533 1428.41 592.324 C 1430.28 599.634 1433.03 625.057 1433.78 633.211 C 1440.89 710.27 1432.24 787.971 1408.35 861.577 C 1404.44 873.727 1398.46 892.467 1393.12 903.768 C 1394.6 894.656 1395.15 886.418 1395.84 877.246 C 1401.91 790.236 1387.36 713.261 1357.13 632.206 C 1379.84 611.994 1396.9 601.688 1425.15 590.914 z" fill="rgb(254,254,254)" transform="translate(0,0)"></path>
<path d="M 1250.74 1149.94 C 1274.79 1164.91 1291.19 1180.89 1312.8 1195.64 C 1295.78 1245.17 1279.44 1273.82 1246.23 1314.92 C 1241.19 1321.35 1236.89 1326.47 1231.43 1332.54 C 1224.58 1307.39 1211.77 1262.08 1197.19 1240.99 C 1219.34 1210.02 1238.54 1187.57 1250.74 1149.94 z" fill="rgb(105,67,68)" transform="translate(0,0)"></path>
<path d="M 1888.8 890.02 L 1889.34 890.577 C 1892.31 911.439 1875.94 955.514 1867.42 975.299 C 1852.08 967.649 1836.72 961.575 1820.75 955.394 C 1811.27 951.635 1805.16 949.244 1796.15 944.322 C 1827.1 929.373 1859.87 908.396 1888.8 890.02 z" fill="rgb(254,254,254)" transform="translate(0,0)"></path>
<path d="M 998.487 1787.52 C 1003.87 1789.46 1013.51 1793.94 1018.68 1796.55 C 1035.05 1839.74 1077.26 1900.4 1113.23 1929.13 C 1103.4 1931.23 1090.12 1932.03 1080.02 1933.19 C 1054.82 1936.1 1032.48 1937.5 1007.17 1937.11 C 1000.52 1936.4 983.348 1935.09 978.783 1931.32 L 979.504 1929.79 C 996.603 1921.74 1052.25 1920.39 1072.44 1919.92 C 1076.06 1919.84 1077.96 1919.88 1079.95 1917.68 C 1080 1910.13 1067.84 1899.29 1063.68 1892.65 C 1043.55 1860.53 1009.65 1823.79 998.487 1787.52 z" fill="rgb(105,67,68)" transform="translate(0,0)"></path>
<path d="M 1266.66 1841.35 C 1270.96 1841 1275.68 1840.96 1280.03 1840.82 C 1290.6 1853.01 1305.28 1876.22 1315.13 1890.29 C 1324.75 1904.02 1351 1934.76 1356.97 1947.9 C 1326.16 1958.44 1288.45 1958.61 1256.16 1955.61 C 1250.37 1955 1235.23 1953.98 1231.92 1949.95 C 1238.54 1941.71 1317.24 1938.28 1331.74 1938.09 C 1325.3 1923.55 1314.11 1913.5 1305.57 1900.47 C 1292.72 1880.87 1278.7 1861.86 1265.54 1842.64 L 1266.66 1841.35 z" fill="rgb(105,67,68)" transform="translate(0,0)"></path>
<path d="M 1065.18 122.341 C 1073.83 121.912 1082.51 122.67 1090.96 124.592 C 1120.27 131.214 1152.57 152.805 1173.75 173.865 C 1176.97 177.069 1183.12 182.81 1185.35 186.33 L 1184.22 186.831 C 1145.51 177.283 1106.71 168.051 1075.3 141.23 C 1071.07 137.62 1063.11 130.103 1062.75 124.652 L 1065.18 122.341 z" fill="rgb(254,221,106)" transform="translate(0,0)"></path>
<path d="M 630.041 101.311 C 673.337 96.9952 710.052 112.248 748.45 129.623 L 730.25 130.966 C 696.401 131.682 634.773 130.881 608.89 108.883 C 617.284 103.376 620.468 102.786 630.041 101.311 z" fill="rgb(254,221,106)" transform="translate(0,0)"></path>
<path d="M 1458.58 1760.8 C 1462.33 1767.54 1473.63 1827.23 1475.69 1837.68 C 1465.98 1833.21 1457.12 1827.51 1448.04 1821.92 C 1436.63 1814.28 1425.86 1805.61 1414.16 1798.47 C 1434.01 1785.4 1442.62 1777.96 1458.58 1760.8 z" fill="rgb(105,67,68)" transform="translate(0,0)"></path>
<path d="M 1290 1116.02 C 1290.2 1116.36 1290.4 1116.7 1290.59 1117.04 C 1286.5 1126.54 1283.46 1134.61 1282.24 1144.71 L 1272.41 1139.61 C 1268.93 1137.78 1269.54 1138.92 1268.04 1136.26 C 1269.87 1130.59 1284.49 1120.47 1290 1116.02 z" fill="rgb(254,254,254)" transform="translate(0,0)"></path>
<path d="M 296.715 108.429 C 369.515 107.471 401.893 174.013 379.682 238.046 C 372.122 259.844 360.658 275.3 344.823 291.837 C 364.091 318.11 380.671 328.128 340.759 345.898 C 330.153 350.62 313.656 362.21 302.032 362.417 C 293.017 357.411 261.842 312.558 256.095 302.017 C 280.28 273.425 287.835 276.661 303.429 236.144 C 318.153 177.777 252.591 191.998 236.371 227.271 C 225.141 251.693 244.011 252.312 253.663 268.038 C 257.037 273.534 235.699 293.9 230.087 294.712 C 216.654 295.967 137.334 280.822 138.951 265.877 C 147.514 186.695 215.225 113.153 296.715 108.429 z" fill="rgb(73,34,33)" transform="translate(0,0)"></path>
<path d="M 288.619 128.374 C 333.045 120.584 368.445 154.458 368.211 198.355 C 368.007 236.614 347.403 262.815 322.352 288.892 C 326.764 300.788 338.194 309.434 345.937 323.266 C 333.918 330.134 320.134 336.538 307.593 342.341 C 297.726 330.694 286.78 318.037 278.285 305.436 C 304.165 279.778 329.246 249.479 322.567 210.56 C 316.249 187.851 303.015 178.081 278.344 178.639 C 242.694 179.445 200.332 224.094 221.433 259.412 C 223.261 262.472 228.667 266.747 231.725 269.258 C 229.634 272.262 227.452 274.72 225.081 277.511 C 202.115 272.659 179.436 265.167 156.632 260.833 C 173.849 196.103 218.124 137.057 288.619 128.374 z" fill="rgb(254,221,106)" transform="translate(0,0)"></path>
<path d="M 370.782 352.999 C 378.381 352.913 383.703 358.693 387.001 364.373 C 392.393 373.659 414.865 405.898 409.925 415.191 C 405.259 423.969 365.033 438.447 354.72 441.768 C 348.428 442.372 345.378 440.056 341.973 434.757 C 334.961 423.843 313.093 397.568 314.522 385.483 C 320.795 376.327 359.197 358.543 370.782 352.999 z" fill="rgb(73,34,33)" transform="translate(0,0)"></path>
<path d="M 370.423 374.762 C 375.424 374.614 388.87 401.847 391.218 407.3 C 381.738 413.639 366.165 419.35 355.344 423.099 C 348.278 412.671 341.306 402.18 334.429 391.627 C 344.054 386.269 360.137 379.426 370.423 374.762 z" fill="rgb(254,221,106)" transform="translate(0,0)"></path>
<path d="M 197.722 407.379 C 205.694 406.501 215.255 407.781 218.442 416.322 C 217.788 430.548 181.217 439.03 169.936 440.693 C 158.868 441.768 141.087 437.856 152.247 422.824 C 160.837 411.253 183.876 409.171 197.722 407.379 z" fill="rgb(73,34,33)" transform="translate(0,0)"></path>
<path d="M 197.959 413.384 C 202.976 412.66 208.712 411.836 211.582 416.532 L 210.58 418.642 C 202.688 425.057 180.565 431.383 170.366 434.035 C 164.851 435.446 157.429 435.665 155.147 429.352 C 158.309 419.315 188.948 414.569 197.959 413.384 z" fill="rgb(254,240,155)" transform="translate(0,0)"></path>
<path d="M 229.763 452.029 C 257.946 456.624 205.591 506.537 195.571 511.261 C 166.375 508.554 205.618 458.221 229.763 452.029 z" fill="rgb(73,34,33)" transform="translate(0,0)"></path>
<path d="M 226.888 458.727 C 229.227 458.804 229.074 458.739 231.116 459.866 L 231.487 462.315 C 228.392 471.09 204.78 495.721 197.195 503.335 L 193.578 502.827 C 185.702 490.877 217.451 464.619 226.888 458.727 z" fill="rgb(254,240,155)" transform="translate(0,0)"></path>
<path d="M 494.853 284.237 C 501.815 283.486 518.353 283.857 514.38 293.699 C 510.525 303.248 478.185 316.529 469.003 320.936 C 463.58 323.744 455.041 329.209 451.282 322.364 C 451.98 305.061 479.329 287.775 494.853 284.237 z" fill="rgb(73,34,33)" transform="translate(0,0)"></path>
<path d="M 494.613 290.167 C 499.2 289.829 502.844 288.763 506.152 292.219 L 505.778 294.473 C 499.856 300.987 477.788 310.608 467.814 316.516 C 464.855 318.184 460.89 319.384 457.6 320.523 C 464.09 303.34 477.74 295.96 494.613 290.167 z" fill="rgb(254,240,155)" transform="translate(0,0)"></path>
<path d="M 442.15 245.888 C 472.68 244.6 440.182 290.774 431.925 299.811 C 429.218 301.099 429.368 300.977 426.34 301.076 C 416.325 295.411 423.543 272.605 427.264 263.944 C 430.823 255.662 434.163 250.266 442.15 245.888 z" fill="rgb(73,34,33)" transform="translate(0,0)"></path>
<path d="M 443.452 251.568 L 447.004 252.175 L 448.346 254.157 C 449.117 264.79 436.727 285.131 430.93 294.089 L 429.734 294.751 L 428.069 294.163 C 423.401 283.01 434.099 258.931 443.452 251.568 z" fill="rgb(254,240,155)" transform="translate(0,0)"></path>
<path d="M 269.307 479.935 C 286.915 478.923 278.873 500.874 275.541 510.34 C 272.512 518.945 268.978 524.762 262.293 531.044 C 243.24 533.82 254.345 501.905 258.299 493.12 C 261.447 486.123 263.002 484.156 269.307 479.935 z" fill="rgb(73,34,33)" transform="translate(0,0)"></path>
<path d="M 269.583 487.475 C 272.29 488.3 271.221 487.528 272.832 489.952 C 273.521 502.158 268.202 514.702 260.836 524.238 C 258.87 523.964 259.79 524.398 258.28 522.569 C 258.026 511.434 261.994 495.906 269.583 487.475 z" fill="rgb(254,240,155)" transform="translate(0,0)"></path>
<path d="M 502.706 337.328 C 509.751 337.372 519.711 339.34 521.72 347.217 C 520.662 358.819 505.556 357.846 497.171 358.094 C 489.857 358.081 481.889 359.16 477.136 352.766 C 476.007 340.928 494.122 338.526 502.706 337.328 z" fill="rgb(73,34,33)" transform="translate(0,0)"></path>
<path d="M 498.266 343.38 C 503.581 343.078 510.517 342.834 513.76 347.854 L 513.004 349.835 C 509.414 352.025 505.582 351.711 501.234 351.953 C 495.174 352.22 488.174 353.27 483.029 350.303 L 483.326 348.597 C 487.757 345.706 493.114 344.319 498.266 343.38 z" fill="rgb(254,240,155)" transform="translate(0,0)"></path>
<metadata><recraft-signature>{"signed_by": "recraft", "signature_b64": "bjVlbTBye/7MjpYv3bzJmRoJulWCLf31/3DTcErm3+NK3fnQnbRdE1X6zAnsgy9KDMgUntI4W0i2wRxA37JKDQ==", "signing_algo": "Ed25519", "generation_timestamp": 1777548387, "identifier": "fd99427b-565e-4a1b-bafd-7606948b35bb"}</recraft-signature></metadata></svg>