<svg xmlns="http://www.w3.org/2000/svg" height="1024" preserveAspectRatio="none" style="display: block;" version="1.1" viewBox="0 0 2048 2048" width="1024">
<defs>
	<linearGradient gradientUnits="userSpaceOnUse" id="Gradient1" x1="975.317" x2="1022.56" y1="1260.16" y2="1251.75">
		<stop class="stop0" offset="0" stop-color="rgb(0,0,0)" stop-opacity="1"></stop>
		<stop class="stop1" offset="1" stop-color="rgb(41,4,9)" stop-opacity="1"></stop>
	</linearGradient>
	<linearGradient gradientUnits="userSpaceOnUse" id="Gradient2" x1="819.057" x2="757.227" y1="981.087" y2="1054.58">
		<stop class="stop0" offset="0" stop-color="rgb(249,248,230)" stop-opacity="1"></stop>
		<stop class="stop1" offset="1" stop-color="rgb(255,255,255)" stop-opacity="1"></stop>
	</linearGradient>
	<linearGradient gradientUnits="userSpaceOnUse" id="Gradient3" x1="1327.51" x2="1305.27" y1="1312.35" y2="1319.45">
		<stop class="stop0" offset="0" stop-color="rgb(0,0,1)" stop-opacity="1"></stop>
		<stop class="stop1" offset="1" stop-color="rgb(45,12,8)" stop-opacity="1"></stop>
	</linearGradient>
	<linearGradient gradientUnits="userSpaceOnUse" id="Gradient4" x1="1486.68" x2="1499.29" y1="987.563" y2="1067.69">
		<stop class="stop0" offset="0" stop-color="rgb(30,2,0)" stop-opacity="1"></stop>
		<stop class="stop1" offset="1" stop-color="rgb(46,3,9)" stop-opacity="1"></stop>
	</linearGradient>
</defs>
<path d="M 1260.94 51.3507 C 1269.16 50.8976 1282.97 51.7281 1289.79 54.7853 C 1335.07 74.672 1315.6 139.887 1274.57 152.706 C 1243.01 162.564 1216.18 156.072 1204.61 121.932 C 1195.27 129.454 1177.54 149.915 1169.48 159.447 C 1112.34 227.063 1079.61 281.91 1049.21 364.287 C 1063.77 359.847 1086.82 348.074 1105.75 341.78 C 1201.43 309.964 1285.99 300.368 1386.59 309.115 C 1392.52 299.215 1399.92 289.507 1407.17 280.531 C 1450.32 227.051 1505.76 183.615 1565.52 150.108 C 1586.65 136.778 1613.31 129.584 1634.67 117.81 C 1657.28 105.347 1680.24 96.4799 1705.2 112.303 C 1715.9 119.161 1723.35 130.088 1725.81 142.559 C 1736.94 198.193 1630.9 225.923 1619.82 155.164 C 1540.19 198.476 1491.78 244.566 1439.13 316.513 C 1549.8 341.187 1653.24 395.511 1733.18 476.466 C 1759.17 502.797 1780.72 534.102 1799.15 566.075 C 1807.82 557.975 1832.4 530.94 1844.35 536.815 C 1849.39 544.525 1839.81 552.019 1834.24 556.892 C 1825.09 564.897 1815.62 573.85 1805.46 580.455 C 1809.14 589.468 1813.91 598.119 1818.45 606.748 C 1828.56 601.023 1856.81 581.472 1865.92 589.235 C 1867.28 593.194 1867.15 591.236 1866.3 595.333 C 1861.28 601.641 1832.94 615.441 1824.15 619.979 C 1830.57 638.331 1837.62 658.466 1842.02 677.434 C 1853.34 726.228 1855.84 788.997 1847.7 838.156 C 1928.33 926.977 1875.74 1050.75 1800.67 1122.67 C 1689.95 1228.76 1504.69 1271.53 1356.22 1270.8 L 1359.03 1274.71 C 1370.33 1290.69 1387.99 1324.43 1388.42 1344.7 C 1388.66 1355.6 1346.71 1333.34 1340.74 1330.6 C 1350.31 1370.62 1360.28 1410.55 1370.67 1450.37 C 1384.89 1505.85 1397.13 1556.03 1418.84 1609.69 C 1424.45 1623.57 1444.12 1665.64 1439.38 1679.56 C 1438.95 1680.66 1436.8 1683.56 1435.38 1683.55 C 1386.2 1683.14 1336.96 1544.13 1329.16 1522.08 C 1322.18 1544.63 1314.89 1573.36 1306.64 1594.85 C 1276.07 1674.46 1226.93 1743.31 1161.38 1797.93 C 1139.21 1816.4 1111.84 1831.63 1089.38 1847.5 C 1085.02 1850.57 1064.12 1886.5 1059.2 1894.01 C 1044.86 1915.87 1029.68 1936.17 1013.9 1957.27 C 1031.79 1954.84 1053.85 1955.89 1070.43 1963.75 C 1102.33 1978.87 1082.63 1989.01 1060.45 1994.58 C 1054.6 1995.63 1048.71 1996.46 1042.8 1997.09 C 1013.65 2000.07 968.862 1998.19 945.074 1978.85 C 948.225 1971.55 954.332 1962.01 958.249 1954.79 C 973.612 1926.48 988.82 1904.1 1008.34 1878.73 C 985.524 1888.23 946.084 1895.9 921.697 1899.39 C 903.699 1924.73 886.727 1940.78 864.955 1962.63 C 881.775 1963.06 920.266 1963.68 931.494 1980.53 C 936.849 1991 921.974 1998.77 915.056 2000.63 C 875.743 2011.15 829.203 2002.46 793.932 1983.97 C 806.177 1958.7 830.268 1929.17 848.272 1907.82 C 790.559 1916.15 711.352 1904.71 655.671 1887.74 C 651.733 1886.54 632.258 1879.08 629.867 1875.48 C 610.994 1847.12 609.052 1802.87 605.376 1769.26 C 599.245 1637.33 648.791 1508.88 725.232 1403.14 C 739.192 1383.83 756.592 1364.4 772.279 1346.83 C 700.872 1383.73 586.186 1431.44 504.054 1421.76 C 482.558 1419.22 460.354 1410.87 446.979 1393 C 440.893 1384.87 437.717 1376 439.369 1365.79 C 453.472 1278.68 707.988 1262.06 778.298 1259.36 C 801.325 1258.47 824.452 1258.5 847.497 1258.28 C 854.26 1258.21 861.533 1259.14 868.166 1258.73 C 870.544 1258.58 871.15 1258.15 873.034 1256.8 L 873.234 1255.34 C 866.713 1252.94 846.299 1253.41 838.744 1253.48 C 655.02 1255.1 460.337 1249.42 301.564 1144.97 C 230.976 1098.64 167.952 1030.59 150.987 945.506 C 133.303 856.812 198.943 790.722 282.062 774.165 C 399.68 750.736 519.241 803.793 615.764 867.042 C 608.939 852.768 603.379 837.922 599.15 822.676 C 586.714 777.2 580.478 710.039 604.357 668.015 C 620.505 639.599 646.136 621.326 677.489 612.847 C 708.346 604.502 750.952 607.559 778.688 623.963 C 787.585 602.547 797.73 585.075 810.107 565.638 C 856.691 492.478 914.133 441.271 988.314 397.882 C 1006.71 330.185 1048.22 247.837 1092.08 192.426 C 1127.58 147.569 1186 85.8842 1237.16 57.7049 C 1243.72 54.0943 1253.59 52.3159 1260.94 51.3507 z" fill="rgb(44,10,14)" transform="translate(0,0)"></path>
<path d="M 1402.44 456.328 C 1414.22 441.999 1427.92 429.19 1443.86 419.954 C 1557.29 354.209 1679.94 434.877 1748.19 526.863 C 1759.47 542.072 1768.92 558.444 1778.56 574.383 L 1776.93 575.015 C 1724.84 511.769 1631.07 484.665 1562.52 539.868 C 1525.4 569.764 1505.84 620.522 1501.6 667.087 C 1495.17 740.008 1517.48 812.555 1563.76 869.271 C 1643.38 965.065 1771.29 957.837 1818.19 836.06 C 1820.93 838.378 1823.7 840.668 1826.49 842.929 C 1825.01 846.741 1832.28 851.226 1834.91 854.395 C 1887.87 918.177 1864.71 1009.42 1818.76 1068.79 C 1737.96 1173.21 1603.91 1219.38 1478.18 1238.9 C 1379.41 1254.23 1283.25 1250.27 1186.26 1227.08 C 1176.98 1224.88 1146.79 1217.9 1138.74 1214.65 C 1103.26 1200.33 1059.8 1177.01 1029.22 1154.26 C 940.628 1089.54 881.671 992.016 865.545 883.494 C 833.868 663.961 999.334 445.806 1217.65 416.875 C 1283.77 408.112 1347.63 415.368 1402.44 456.328 z" fill="rgb(251,220,150)" transform="translate(0,0)"></path>
<path d="M 1173.51 539.41 C 1207.38 534.551 1260.16 547.237 1291.17 561.226 C 1356.14 589.837 1406.92 643.312 1432.14 709.675 C 1455.36 771.732 1454.86 835.491 1427.53 896.553 C 1374.71 1014.57 1227.39 1050.77 1114.66 997.967 C 1073.63 978.24 1038.49 948.088 1012.77 910.526 C 972.366 851.005 963.17 787.053 976.261 717.493 C 960.912 717.252 945.401 716.78 930.196 714.458 C 923.759 713.475 917.311 712.276 914.971 705.706 C 915.638 701.851 918.959 697.377 923.096 697.716 C 942.41 699.3 960.062 702.884 979.669 703.187 C 982.662 693.044 984.336 687.923 988.627 678.159 C 968.944 674.124 945.298 667.856 925.957 661.704 C 921.99 660.443 918.242 657.446 916.622 653.364 C 918.126 639.251 949.456 651.781 958.768 654.228 C 970.771 657.443 982.881 660.243 995.077 662.623 C 1033.36 592.675 1092.75 546.976 1173.51 539.41 z" fill="rgb(44,10,14)" transform="translate(0,0)"></path>
<path d="M 1175.57 553.382 C 1175.84 553.332 1176.11 553.283 1176.39 553.234 C 1236.9 548.447 1289.71 568.344 1337.22 603.601 C 1390.76 643.256 1426.12 702.772 1435.33 768.76 C 1445.15 836.657 1421.87 909.355 1369.91 954.924 C 1333.93 986.477 1294.58 1001.36 1247.75 1007.91 C 1184.45 1013.16 1126.31 997.612 1076.04 958.504 C 1026.29 920.416 994.123 863.765 986.915 801.522 C 979.952 744.575 996.137 679.06 1031.99 633.852 C 1067.08 588.817 1118.84 559.812 1175.57 553.382 z" fill="rgb(254,254,253)" transform="translate(0,0)"></path>
<path d="M 1251.28 610.341 C 1327.16 605.374 1390.84 691.879 1401.87 759.77 C 1412.76 826.841 1386.2 898.03 1312.75 909.353 C 1282.29 913.606 1254.14 903.181 1229.2 885.07 C 1159.67 834.581 1134.74 721.138 1185.81 649.89 C 1201.08 628.584 1224.59 613.876 1251.28 610.341 z" fill="rgb(44,10,14)" transform="translate(0,0)"></path>
<path d="M 1248.65 620.264 C 1272.98 619.099 1284.58 622.249 1306.02 634.88 C 1348.92 660.262 1378.18 703.809 1389.47 752.07 C 1404.39 815.893 1383.19 883.214 1313.52 898.313 C 1234.88 907.968 1181.99 835.475 1169.48 765.877 C 1158.78 706.326 1182.59 631.941 1248.65 620.264 z" fill="rgb(86,64,63)" transform="translate(0,0)"></path>
<path d="M 1223.78 644.312 C 1294.36 642.117 1285.28 769.607 1219.92 794.567 C 1188.49 799.648 1177.84 776.767 1172.64 750.032 C 1165.43 712.99 1181.29 652.941 1223.78 644.312 z" fill="rgb(44,10,14)" transform="translate(0,0)"></path>
<path d="M 1227.03 652.252 C 1285.27 651.999 1271.16 771.288 1216.34 786.157 C 1158.47 785.792 1167.01 663.592 1227.03 652.252 z" fill="rgb(254,254,253)" transform="translate(0,0)"></path>
<path d="M 1061.03 1020.36 C 1077.87 1018.2 1096.61 1021.48 1111.03 1029.88 C 1134.51 1043.58 1136.73 1067.46 1109.16 1077.03 C 1103.3 1079.06 1099.59 1079.87 1093.39 1080.94 C 1074.67 1081.85 1058.57 1080.51 1042.01 1070.4 C 1030.92 1064.05 1018.61 1048.36 1027.81 1035.69 C 1035.23 1025.48 1049.26 1021.94 1061.03 1020.36 z" fill="rgb(218,121,117)" transform="translate(0,0)"></path>
<path d="M 1174.49 441.355 C 1178.41 440.86 1185.26 441.545 1188.29 443.453 C 1216.1 461.212 1181.34 481.908 1164.99 489.887 C 1147.96 498.201 1132.9 503.471 1114.35 507.313 C 1096.9 509.508 1076.06 504.122 1092.91 483.652 C 1111.71 460.816 1145.24 445.344 1174.49 441.355 z" fill="rgb(44,10,14)" transform="translate(0,0)"></path>
<path d="M 1168.66 450.172 C 1176.42 449.364 1185.78 448.406 1191.07 455.152 C 1194.83 473.549 1132.29 493.205 1117.91 497.456 C 1111.83 498.528 1099.52 502.169 1096.09 495.835 C 1097.73 487.55 1114.12 476.276 1120.8 471.523 C 1135.93 460.752 1150.65 454.115 1168.66 450.172 z" fill="rgb(86,64,63)" transform="translate(0,0)"></path>
<path d="M 1823.85 900.388 C 1849.6 899.996 1845.69 923.017 1833.93 937.798 C 1819.72 955.661 1803.12 964.842 1780.79 967.998 C 1753.04 967.229 1757.45 945.541 1770.76 929.122 C 1783.87 912.786 1803 902.426 1823.85 900.388 z" fill="rgb(218,121,117)" transform="translate(0,0)"></path>
<path d="M 1532.53 901.348 C 1543.6 899.816 1561.24 900.399 1570.23 907.585 C 1579.89 915.32 1577.07 927.201 1569.82 935.515 C 1559.1 947.803 1546.46 952.286 1530.89 953.541 C 1475.45 953.21 1468.11 910.067 1532.53 901.348 z" fill="rgb(44,10,14)" transform="translate(0,0)"></path>
<path d="M 1537.11 910.4 C 1587.39 905.179 1569.69 943.685 1526.9 944.123 C 1517.66 943.588 1486.26 939.745 1497.09 924.647 C 1504.07 914.918 1525.97 911.484 1537.11 910.4 z" fill="rgb(86,64,63)" transform="translate(0,0)"></path>
<path d="M 1568.85 417.215 C 1579.47 416.735 1586.02 417.055 1599.99 421.151 C 1612.58 424.841 1653.07 442.019 1649.37 461.185 C 1648.69 464.723 1640.71 469.245 1636.57 470.746 C 1624.74 472.932 1612.51 470.875 1599.27 466.595 C 1587.04 462.645 1551.31 446.04 1556.63 427.889 C 1557.89 423.612 1564.47 419.13 1568.85 417.215 z" fill="rgb(44,10,14)" transform="translate(0,0)"></path>
<path d="M 1567.65 426.188 C 1576.3 425.316 1582.84 426.625 1591.21 428.549 C 1602.31 431.101 1641.66 446.045 1637.44 461.079 L 1634.76 462.57 C 1618.91 464.154 1571.44 452.619 1564.58 432.41 C 1563.74 429.936 1566.03 427.923 1567.65 426.188 z" fill="rgb(86,64,63)" transform="translate(0,0)"></path>
<path d="M 1417.94 997.304 C 1418.45 997.696 1418.95 998.087 1419.46 998.479 C 1417.75 1001.79 1404.09 1009.23 1400.13 1011.62 C 1406.08 1017.46 1412.43 1022.89 1419.12 1027.85 C 1487.25 1079.09 1552.59 1061.91 1601.6 995.901 C 1597.2 1008.18 1593.53 1014.16 1585.81 1024.56 C 1563.55 1053.02 1534.56 1068.53 1497.84 1068.97 C 1454.96 1069.48 1423.12 1046.23 1393.85 1017.34 C 1391.16 1020.96 1387.03 1030.14 1383.24 1031.05 L 1382.6 1028.89 C 1386.14 1010.27 1399.89 1000.43 1417.94 997.304 z" fill="url(#Gradient4)" transform="translate(0,0)"></path>
<path d="M 160.478 901.327 C 163.541 873.209 180.745 841.59 202.271 823.487 C 243.482 788.829 298.54 777.955 350.81 781.817 C 354.233 782.025 359.245 782.174 362.517 782.729 C 606.626 811.071 801.015 1024.92 925.06 1221.29 C 922.454 1222.87 915.023 1227.65 912.661 1228.73 L 906.01 1232.54 C 899.391 1237.28 892.884 1242.17 886.493 1247.21 C 842.017 1243.89 792.528 1245.61 747.276 1244.46 C 580.474 1240.23 413.875 1216.89 278.236 1110.97 L 272.971 1107.13 C 266.236 1102.98 251.034 1088.72 245.225 1082.93 C 200.198 1038.01 159.806 976.666 159.814 911.091 C 159.913 907.447 160.077 904.952 160.478 901.327 z" fill="rgb(254,254,253)" transform="translate(0,0)"></path>
<path d="M 278.236 1110.97 C 341.815 1078.29 407.427 1056.48 478.299 1045.42 C 505.394 1041.2 527.095 1040.35 554.066 1038.48 C 654.628 1087.54 752.061 1151.11 851.071 1203.89 C 868.908 1213.39 888.64 1222.51 906.01 1232.54 C 899.391 1237.28 892.884 1242.17 886.493 1247.21 C 842.017 1243.89 792.528 1245.61 747.276 1244.46 C 580.474 1240.23 413.875 1216.89 278.236 1110.97 z" fill="rgb(254,254,253)" transform="translate(0,0)"></path>
<path d="M 159.814 911.091 C 274.638 905.996 391.995 948.78 490.858 1004.23 C 504.89 1012.1 524.69 1022.18 537.429 1031.07 C 516.838 1033.77 495.168 1034.25 474.78 1037.4 C 414.776 1046.67 322.582 1071.29 272.971 1107.13 C 266.236 1102.98 251.034 1088.72 245.225 1082.93 C 200.198 1038.01 159.806 976.666 159.814 911.091 z" fill="rgb(254,254,253)" transform="translate(0,0)"></path>
<path d="M 160.478 901.327 C 163.541 873.209 180.745 841.59 202.271 823.487 C 243.482 788.829 298.54 777.955 350.81 781.817 C 360.105 793.816 370.103 804.977 379.266 817.059 C 408.21 854.859 432.518 895.993 451.669 939.58 C 457.578 953.151 464.475 967.726 467.654 982.086 C 437.904 969.335 409.111 953.165 378.404 942.301 C 309.791 918.025 235.416 898.154 161.971 903.699 C 161.36 903.745 160.69 901.849 160.478 901.327 z" fill="rgb(254,254,253)" transform="translate(0,0)"></path>
<path d="M 350.81 781.817 C 354.233 782.025 359.245 782.174 362.517 782.729 L 363.38 784.044 C 372.322 797.53 385.784 813.071 395.929 826.572 C 428.802 870.318 462.536 931.492 473.713 985.773 C 558.317 1026.84 644.041 1076.9 725.783 1123.35 L 834.395 1185.2 C 861.454 1200.29 885.603 1212.74 912.661 1228.73 L 906.01 1232.54 C 888.64 1222.51 868.908 1213.39 851.071 1203.89 C 752.061 1151.11 654.628 1087.54 554.066 1038.48 C 527.095 1040.35 505.394 1041.2 478.299 1045.42 C 407.427 1056.48 341.815 1078.29 278.236 1110.97 L 272.971 1107.13 C 322.582 1071.29 414.776 1046.67 474.78 1037.4 C 495.168 1034.25 516.838 1033.77 537.429 1031.07 C 524.69 1022.18 504.89 1012.1 490.858 1004.23 C 391.995 948.78 274.638 905.996 159.814 911.091 C 159.913 907.447 160.077 904.952 160.478 901.327 C 160.69 901.849 161.36 903.745 161.971 903.699 C 235.416 898.154 309.791 918.025 378.404 942.301 C 409.111 953.165 437.904 969.335 467.654 982.086 C 464.475 967.726 457.578 953.151 451.669 939.58 C 432.518 895.993 408.21 854.859 379.266 817.059 C 370.103 804.977 360.105 793.816 350.81 781.817 z" fill="rgb(97,171,184)" transform="translate(0,0)"></path>
<path d="M 1298.79 327.433 C 1383.08 322.193 1467.37 337.554 1544.38 372.188 C 1563.26 380.554 1578.57 387.499 1595.97 398.741 C 1519.58 374.027 1455.84 384.501 1400.3 444.482 C 1328.69 389.144 1223.57 397.828 1142.48 424.945 C 1094.1 441.124 1053.27 464.496 1013.33 496.005 C 924.369 566.528 866.835 669.309 853.228 782.013 C 839.873 895.878 874.242 1001.71 944.76 1090.94 C 975.834 1129.2 1004.5 1154.56 1046.03 1181.33 C 1056.7 1188.21 1067.29 1193.68 1077.72 1200.17 C 976.549 1168.31 888.679 1104.03 827.67 1017.27 C 716.931 856.765 749.825 650.433 877.803 512.992 C 914.429 473.658 938.554 455.119 982.609 424.909 C 987.822 442.031 1005.4 448.784 1021.11 439.96 C 1033.44 433.038 1036.77 406.049 1039.61 392.38 C 1120.7 353.363 1208.89 331.265 1298.79 327.433 z" fill="rgb(251,220,150)" transform="translate(0,0)"></path>
<path d="M 1636.64 522.377 C 1667.4 517.805 1710.54 532.627 1735.32 551.563 C 1829.35 623.438 1849.92 780.412 1783.04 876.722 C 1764.18 903.89 1732.7 919.058 1701.16 923.827 C 1599.09 933.293 1524.12 813.955 1514.62 724.327 C 1505.27 636.182 1536.18 534.263 1636.64 522.377 z" fill="rgb(254,254,253)" transform="translate(0,0)"></path>
<path d="M 1668.68 585.265 C 1684.1 583.725 1697.76 588.052 1710.95 595.81 C 1792.2 643.603 1812.56 832.525 1700.88 854.031 C 1621.62 856.806 1581.67 757.376 1587.83 690.696 C 1592.14 644.077 1618.78 593.644 1668.68 585.265 z" fill="rgb(44,10,14)" transform="translate(0,0)"></path>
<path d="M 1668.33 594.234 C 1682.38 593.315 1698.85 597.48 1710.28 605.915 C 1767.51 648.309 1789.4 753.894 1749.21 813.848 C 1724.98 850.008 1686.31 856.285 1651.48 830.8 C 1618.55 807.643 1600.09 762.747 1598 723.588 C 1602.79 731.45 1607.93 740.365 1615.91 745.107 C 1636.21 757.168 1657.69 742.32 1667.77 724.295 C 1681.63 699.533 1684.6 667.518 1678.1 640.174 C 1675.27 628.29 1667.56 617.474 1656.82 611.774 C 1650.19 608.291 1648.38 608.301 1641.47 610.791 L 1639.53 609.871 C 1639.15 608.798 1639.59 608.725 1640.29 607.079 C 1647.54 600.802 1658.94 596.011 1668.33 594.234 z" fill="rgb(86,64,63)" transform="translate(0,0)"></path>
<path d="M 1644.87 617.124 C 1684.42 619.321 1676.15 701.683 1659.33 723.313 C 1649.11 736.463 1646.91 738.863 1631.29 742.503 C 1583.1 738.074 1598.14 629.233 1644.87 617.124 z" fill="rgb(254,254,253)" transform="translate(0,0)"></path>
<path d="M 809.469 1338.72 C 814.001 1343.66 830.664 1373.02 836.303 1381.14 C 861.344 1417.21 888.124 1445.66 921.581 1473.83 C 913.206 1486.89 906.083 1501.06 897.63 1514.15 C 889.041 1528.46 875.987 1543.23 869.035 1558.25 C 855.888 1586.65 883.28 1586.38 900.408 1573.63 C 910.2 1566.35 916.219 1561.69 924.728 1553.02 C 938.612 1538.86 950.544 1525.04 962.14 1509.14 C 1049.33 1568.9 1172.18 1615.23 1278.74 1610.2 C 1272.8 1624.13 1261.71 1643.16 1254.29 1656.43 C 1240.08 1680.74 1223.86 1703.82 1205.81 1725.43 C 1158.8 1729.74 1078.94 1713.61 1034.53 1698.38 C 1000.91 1686.65 968.34 1672.09 937.18 1654.85 C 918.093 1644.44 898.949 1633.96 881.143 1621.45 C 815.541 1575.36 759.924 1514.85 724.542 1442.75 C 743.297 1411.8 784.973 1365.79 809.469 1338.72 z" fill="rgb(251,220,150)" transform="translate(0,0)"></path>
<path d="M 717.35 1451.85 C 722.276 1457.43 735.046 1481.81 740.092 1489.9 C 755.68 1514.64 773.747 1537.72 794.015 1558.78 C 872.175 1640.46 991.742 1705.3 1102.72 1727.33 C 1132.09 1733.16 1167.74 1735.32 1197.64 1735.84 C 1194.05 1738.86 1190.13 1742.74 1186.8 1746.07 C 1170.65 1762.26 1153.84 1776.24 1135.39 1789.71 C 1130.57 1793.52 1125.41 1798.01 1119.96 1800.87 C 1089.83 1816.67 995.291 1795.61 962.011 1785.06 C 836.935 1746.02 732.319 1659.19 670.896 1543.45 C 680.047 1514.96 701.795 1477.21 717.35 1451.85 z" fill="rgb(86,64,63)" transform="translate(0,0)"></path>
<path d="M 665.396 1555.43 C 667.16 1556.72 683.374 1585.8 686.645 1590.88 C 771.54 1722.68 937.415 1816.06 1095.16 1815.93 C 1079.7 1827.49 1051.56 1839.28 1033.24 1846.45 C 1032.45 1846.76 1031.66 1847.06 1030.87 1847.36 C 1005.28 1856.96 941.566 1878.31 915.184 1875.33 C 883.595 1871.76 837.39 1856.22 808.564 1843.11 C 728.64 1806.12 666.297 1739.41 634.788 1657.17 C 637.779 1645.91 639.774 1634.31 642.777 1622.84 C 648.767 1599.88 656.324 1577.35 665.396 1555.43 z" fill="rgb(251,220,150)" transform="translate(0,0)"></path>
<path d="M 1034.76 1393.43 C 1114.46 1443.7 1223.08 1483.44 1318.22 1476.17 C 1308.02 1526.88 1301.22 1554.09 1281.19 1603.23 L 1252.75 1601.9 C 1179.83 1597.49 1101.99 1574.63 1037.03 1541.93 C 1014.39 1530.53 988.529 1515.12 966.084 1502.34 C 986.535 1475.52 1020.26 1424.1 1034.76 1393.43 z" fill="rgb(86,64,63)" transform="translate(0,0)"></path>
<path d="M 604.872 1287.94 C 678.201 1272.73 753.913 1268.58 828.573 1264.44 C 840.608 1263.77 853.768 1263.68 865.607 1261.93 C 857.995 1267.37 849.99 1274.77 842.117 1279.34 L 837.015 1284.25 C 827.891 1292.87 790.835 1330.17 783.139 1333.99 C 714.751 1367.94 610.821 1409.26 537.543 1414.16 L 526.208 1414.97 C 498.098 1414.76 464.794 1408.56 450.312 1381.46 C 449.615 1378.75 449.046 1376.11 448.44 1373.38 C 446.991 1322.5 554.231 1300.69 591.524 1290.31 L 604.872 1287.94 z" fill="rgb(254,254,253)" transform="translate(0,0)"></path>
<path d="M 604.872 1287.94 C 678.201 1272.73 753.913 1268.58 828.573 1264.44 C 840.608 1263.77 853.768 1263.68 865.607 1261.93 C 857.995 1267.37 849.99 1274.77 842.117 1279.34 C 783.966 1289.21 728.349 1302.76 671.644 1318.79 C 664.605 1320.78 657.18 1322.5 650.267 1324.83 C 634.654 1309.55 622.332 1300.63 604.872 1287.94 z" fill="rgb(254,254,253)" transform="translate(0,0)"></path>
<path d="M 591.524 1290.31 C 601.163 1296.87 610.354 1303.26 619.502 1310.49 C 626.535 1316.05 634.294 1323.91 641.503 1328.69 C 618.691 1335.27 603.753 1334.92 581.405 1337.13 C 551.535 1340.09 488.725 1353.02 463.267 1367.84 C 458.341 1369.73 453.398 1371.58 448.44 1373.38 C 446.991 1322.5 554.231 1300.69 591.524 1290.31 z" fill="rgb(254,254,253)" transform="translate(0,0)"></path>
<path d="M 462.089 1374.49 C 514.405 1353.68 557.203 1344.53 613.75 1340.17 C 583.324 1356.78 549.545 1384.18 528.912 1413.86 C 528.011 1414.23 527.109 1414.6 526.208 1414.97 C 498.098 1414.76 464.794 1408.56 450.312 1381.46 C 455.016 1378.12 456.951 1377.1 462.089 1374.49 z" fill="rgb(254,254,253)" transform="translate(0,0)"></path>
<path d="M 650.267 1324.83 C 657.18 1322.5 664.605 1320.78 671.644 1318.79 C 728.349 1302.76 783.966 1289.21 842.117 1279.34 L 837.015 1284.25 C 828.375 1284.73 811.705 1288.91 802.958 1291.34 C 755.92 1304.44 703.783 1314.85 657.597 1329.9 C 646.531 1333.57 635.735 1338.01 625.286 1343.18 C 591.36 1359.99 561.261 1384.81 537.543 1414.16 L 526.208 1414.97 C 527.109 1414.6 528.011 1414.23 528.912 1413.86 C 549.545 1384.18 583.324 1356.78 613.75 1340.17 C 557.203 1344.53 514.405 1353.68 462.089 1374.49 C 456.951 1377.1 455.016 1378.12 450.312 1381.46 C 449.615 1378.75 449.046 1376.11 448.44 1373.38 C 453.398 1371.58 458.341 1369.73 463.267 1367.84 C 488.725 1353.02 551.535 1340.09 581.405 1337.13 C 603.753 1334.92 618.691 1335.27 641.503 1328.69 C 634.294 1323.91 626.535 1316.05 619.502 1310.49 C 610.354 1303.26 601.163 1296.87 591.524 1290.31 L 604.872 1287.94 C 622.332 1300.63 634.654 1309.55 650.267 1324.83 z" fill="rgb(97,171,184)" transform="translate(0,0)"></path>
<path d="M 463.267 1367.84 C 460.433 1370.95 459.931 1371.29 456.113 1373.08 L 455.425 1374.38 C 457.201 1374.81 459.287 1374.05 461.473 1373.93 L 462.089 1374.49 C 456.951 1377.1 455.016 1378.12 450.312 1381.46 C 449.615 1378.75 449.046 1376.11 448.44 1373.38 C 453.398 1371.58 458.341 1369.73 463.267 1367.84 z" fill="rgb(108,191,204)" transform="translate(0,0)"></path>
<path d="M 620.005 663.647 C 647.514 623.822 694.509 612.147 740.671 621.374 C 751.365 623.512 765.268 627.33 774.947 632.428 C 752.889 686.671 741.061 744.529 740.059 803.077 C 739.779 816.523 740.891 828.267 741.039 841.263 C 741.609 845.477 742.069 849.007 742.353 853.244 C 745.565 873.631 749.662 893.869 754.633 913.899 C 751.207 911.983 743.977 906.066 740.862 903.404 C 716.069 882.216 686.269 872.67 656.79 859.574 C 643.602 853.623 630.746 846.961 618.279 839.617 C 617.53 834.666 611.77 818.246 610.24 811.802 C 600.061 768.918 593.595 707.724 617.01 668.629 L 620.005 663.647 z" fill="rgb(254,254,253)" transform="translate(0,0)"></path>
<path d="M 620.005 663.647 C 647.514 623.822 694.509 612.147 740.671 621.374 C 751.365 623.512 765.268 627.33 774.947 632.428 C 752.889 686.671 741.061 744.529 740.059 803.077 C 739.779 816.523 740.891 828.267 741.039 841.263 C 738.53 837.94 735.856 830.398 734.108 826.303 C 708.199 765.61 673.918 703.832 620.005 663.647 z" fill="rgb(254,254,253)" transform="translate(0,0)"></path>
<path d="M 617.01 668.629 L 620.005 663.647 C 673.918 703.832 708.199 765.61 734.108 826.303 C 735.856 830.398 738.53 837.94 741.039 841.263 C 741.609 845.477 742.069 849.007 742.353 853.244 C 736.795 847.916 732.861 838.193 729.894 831.176 C 707.353 777.869 679.461 725.999 636.527 686.193 C 630.265 680.387 624.03 673.787 617.01 668.629 z" fill="rgb(97,171,184)" transform="translate(0,0)"></path>
<path d="M 1136.17 1278.23 L 1134.99 1278.02 L 1134.89 1276.27 C 1137.31 1273.14 1135.82 1274.15 1139.39 1272.94 L 1140.59 1274.01 C 1141.33 1284.76 1149.86 1319.03 1159.33 1323.85 C 1160.96 1321.47 1160.52 1321.55 1160.89 1318.33 L 1159.01 1318.42 C 1152.79 1309.43 1138.32 1269.72 1142.66 1260.83 C 1145.16 1280.72 1150.93 1300.06 1159.76 1318.06 C 1162.59 1306.79 1163.85 1299.42 1165.04 1287.9 C 1165.69 1281.6 1163.76 1269.13 1165.08 1265.44 C 1166.66 1266.53 1166.18 1265.91 1166.83 1267.02 C 1165.03 1280.84 1179.81 1294.17 1186.75 1305.38 C 1190.54 1311.5 1197.53 1317.29 1202.24 1322.79 L 1201.28 1324.31 C 1210.57 1334.92 1229.34 1344.93 1243 1348.4 C 1243.86 1328.29 1241.2 1317.93 1237.1 1298.2 C 1256.59 1326.11 1295.45 1348.53 1328.07 1358.09 C 1327.6 1391.57 1325.22 1431.94 1319.86 1464.82 C 1244.53 1484.46 1102.29 1424.68 1039.8 1385.57 C 1048.41 1367.66 1054.56 1353.51 1061.74 1334.92 C 1086.51 1328.29 1123.16 1300.27 1136.17 1278.23 z" fill="rgb(251,220,150)" transform="translate(0,0)"></path>
<path d="M 1136.17 1278.23 L 1134.99 1278.02 L 1134.89 1276.27 C 1137.31 1273.14 1135.82 1274.15 1139.39 1272.94 L 1140.59 1274.01 C 1141.33 1284.76 1149.86 1319.03 1159.33 1323.85 C 1160.96 1321.47 1160.52 1321.55 1160.89 1318.33 L 1159.01 1318.42 C 1152.79 1309.43 1138.32 1269.72 1142.66 1260.83 C 1145.16 1280.72 1150.93 1300.06 1159.76 1318.06 C 1162.59 1306.79 1163.85 1299.42 1165.04 1287.9 C 1165.69 1281.6 1163.76 1269.13 1165.08 1265.44 C 1166.66 1266.53 1166.18 1265.91 1166.83 1267.02 C 1165.03 1280.84 1179.81 1294.17 1186.75 1305.38 C 1190.54 1311.5 1197.53 1317.29 1202.24 1322.79 L 1201.28 1324.31 C 1191.12 1317.35 1175.06 1291.87 1168.24 1280.96 C 1167.57 1289.14 1165.14 1323.29 1158.69 1325.64 C 1146.81 1319.29 1141.49 1287.64 1138.49 1275.33 L 1136.17 1278.23 z" fill="rgb(9,1,1)" transform="translate(0,0)"></path>
<path d="M 915.082 1137.88 C 940.638 1161.77 993.054 1189.21 1025.87 1202.35 C 1124.64 1241.88 1237.74 1264.83 1343.5 1268.54 C 1356.86 1287.94 1373.08 1316.91 1378.63 1339.85 C 1365.52 1331.64 1347.13 1324.33 1332.92 1316.71 L 1332.15 1319.92 L 1329.48 1320.61 L 1329.94 1319.74 L 1330.02 1323.9 L 1330.84 1321.91 C 1331.24 1323.26 1331.64 1324.25 1331.79 1325.63 C 1335.1 1329.31 1338.03 1341.45 1337.59 1346.29 C 1337.4 1349.22 1338.19 1351.37 1335 1352.31 C 1334.92 1354.06 1335.19 1353.25 1334.09 1354.74 C 1288.17 1336.69 1252.93 1312.08 1223.01 1272.06 C 1227.78 1295.93 1233.17 1313.83 1236.51 1338.53 C 1204.37 1322.53 1185.04 1296.62 1166.83 1267.02 C 1166.18 1265.91 1166.66 1266.53 1165.08 1265.44 C 1163.76 1269.13 1165.69 1281.6 1165.04 1287.9 C 1163.85 1299.42 1162.59 1306.79 1159.76 1318.06 C 1150.93 1300.06 1145.16 1280.72 1142.66 1260.83 C 1142.6 1257.22 1143.24 1257.44 1141.39 1255.39 C 1136.74 1261.72 1132.73 1272.59 1127.34 1279.03 C 1111.47 1297.99 1085.98 1318.19 1063.61 1327.63 L 1070.79 1265.32 C 1074.82 1261.95 1078.44 1259.5 1080.96 1254.96 L 1080.91 1252.91 C 1077.34 1251.07 1058.55 1261.19 1053.61 1263 C 1036.6 1269.21 1019.03 1268.74 1001.28 1267.37 L 986.716 1264.87 C 1001.34 1258.39 1016.31 1248.69 1030.01 1240.27 C 1037.23 1235.7 1041.1 1231.51 1046.93 1227.33 L 1045.88 1228.25 L 1045.03 1228.02 L 1035.88 1233.75 C 1018.08 1233.69 1003.09 1230.95 986.373 1224.49 C 981.005 1222.42 967.497 1216.18 965.242 1211.06 L 963.697 1209.49 C 953.432 1208.82 939.996 1197.09 933.206 1199.61 C 934.403 1202.64 946.202 1205.56 950.897 1209.12 L 949.777 1209.95 L 946.424 1208.91 C 942.158 1210.67 935.076 1214.82 930.751 1217.21 C 926.91 1210.46 921.814 1203.38 918.748 1196.38 L 917.968 1194.57 L 918.661 1192.1 C 921.086 1191.08 946.391 1190.7 956.567 1188.4 C 945.327 1180.05 912.466 1155.28 913.435 1139.23 L 915.082 1137.88 z" fill="rgb(251,220,150)" transform="translate(0,0)"></path>
<path d="M 913.435 1139.23 C 918.08 1142.34 923.58 1151.7 927.909 1156.8 C 937.713 1168.35 948.766 1178.47 961.751 1186.37 C 967.626 1185.97 974.528 1185.35 980.311 1185.26 C 963.838 1190.37 953.074 1194.51 936.055 1196.59 C 949.076 1201.16 954.816 1208.01 967.078 1207.8 L 967.76 1209 L 965.242 1211.06 L 963.697 1209.49 C 953.432 1208.82 939.996 1197.09 933.206 1199.61 C 934.403 1202.64 946.202 1205.56 950.897 1209.12 L 949.777 1209.95 L 946.424 1208.91 C 942.158 1210.67 935.076 1214.82 930.751 1217.21 C 926.91 1210.46 921.814 1203.38 918.748 1196.38 L 917.968 1194.57 L 918.661 1192.1 C 921.086 1191.08 946.391 1190.7 956.567 1188.4 C 945.327 1180.05 912.466 1155.28 913.435 1139.23 z" fill="rgb(9,1,1)" transform="translate(0,0)"></path>
<path d="M 918.748 1196.38 C 923.57 1197.77 925.682 1197.79 930.72 1197.74 C 930.205 1200.29 930.296 1199.01 930.444 1201.6 C 935.978 1204.88 942.173 1206.26 946.424 1208.91 C 942.158 1210.67 935.076 1214.82 930.751 1217.21 C 926.91 1210.46 921.814 1203.38 918.748 1196.38 z" fill="rgb(254,254,253)" transform="translate(0,0)"></path>
<path d="M 1290.47 1275.05 C 1301.69 1290.44 1315.9 1307.36 1332.92 1316.71 L 1332.15 1319.92 L 1329.48 1320.61 L 1329.94 1319.74 L 1330.02 1323.9 L 1330.84 1321.91 C 1331.24 1323.26 1331.64 1324.25 1331.79 1325.63 C 1335.1 1329.31 1338.03 1341.45 1337.59 1346.29 C 1337.4 1349.22 1338.19 1351.37 1335 1352.31 C 1330.76 1346.85 1321.91 1329.47 1317.8 1322.32 C 1310.06 1308.86 1295.6 1289.13 1290.47 1275.05 z" fill="url(#Gradient3)" transform="translate(0,0)"></path>
<path d="M 1337.59 1346.29 C 1334.23 1342.04 1326.27 1327.87 1326.15 1322.57 L 1327.38 1322.15 L 1331.79 1325.63 C 1335.1 1329.31 1338.03 1341.45 1337.59 1346.29 z" fill="rgb(251,220,150)" transform="translate(0,0)"></path>
<path d="M 631.366 1677.7 C 633.972 1680.35 644.863 1702.15 647.384 1706.78 C 651.589 1714.37 656.136 1721.75 661.012 1728.92 C 716.355 1809.72 801.795 1864.93 898.192 1882.2 C 894.83 1882.86 889.768 1883.33 886.241 1883.78 C 807.096 1891.91 717.941 1893.06 643.345 1861.46 C 624.12 1810.24 623.952 1731.33 631.366 1677.7 z" fill="rgb(86,64,63)" transform="translate(0,0)"></path>
<path d="M 892.647 1260.97 C 897.238 1268.58 901.262 1277.93 906.035 1285.07 C 926.409 1315.57 953.651 1341.75 982.186 1364.46 C 976.364 1374.02 968.746 1389.76 963.138 1400.13 C 951.14 1422.39 938.759 1444.44 925.999 1466.27 C 923.219 1463.73 920.171 1461.17 917.321 1458.68 C 868.783 1411.57 853.404 1387.29 817.607 1330.76 C 839.203 1307.38 868.758 1282.26 892.647 1260.97 z" fill="rgb(86,64,63)" transform="translate(0,0)"></path>
<path d="M 618.279 839.617 C 630.746 846.961 643.602 853.623 656.79 859.574 C 686.269 872.67 716.069 882.216 740.862 903.404 C 743.977 906.066 751.207 911.983 754.633 913.899 C 756.793 919.967 760.015 928.135 761.847 934.149 C 801.244 1025.09 836.149 1075.44 915.082 1137.88 L 913.435 1139.23 C 912.466 1155.28 945.327 1180.05 956.567 1188.4 C 946.391 1190.7 921.086 1191.08 918.661 1192.1 L 917.968 1194.57 C 916.944 1193.78 901.06 1167.08 898.546 1163.44 C 879.61 1135.99 860.066 1108.22 839.275 1082.2 C 797.551 1030.12 751.817 981.387 702.493 936.442 C 681.654 917.405 659.439 899.731 637.987 881.585 C 632.138 876.637 623.162 853.142 620.329 845.41 L 618.279 839.617 z" fill="url(#Gradient2)" transform="translate(0,0)"></path>
<path d="M 618.279 839.617 C 630.746 846.961 643.602 853.623 656.79 859.574 C 686.269 872.67 716.069 882.216 740.862 903.404 C 743.977 906.066 751.207 911.983 754.633 913.899 C 756.793 919.967 760.015 928.135 761.847 934.149 C 759.563 932.684 752.726 925.208 750.68 922.871 C 730.591 899.778 702.476 887.753 675.316 875.102 C 655.651 865.942 638.863 856.676 620.329 845.41 L 618.279 839.617 z" fill="rgb(97,171,184)" transform="translate(0,0)"></path>
<path d="M 1062.19 1269.81 L 1063.22 1270.03 C 1064.29 1274.7 1060.16 1290.05 1059.78 1295.58 C 1055.56 1357.83 935.702 1566.12 875.178 1574.67 C 873.697 1573.3 873.96 1573.33 872.911 1571.49 C 872.286 1562.62 881.423 1552.08 886.616 1545.13 C 925.923 1492.58 956.678 1431.51 988.336 1374.23 C 1006.14 1342.02 1019.73 1309.01 1040.72 1278.86 C 1049.53 1276.63 1054.5 1274.36 1062.19 1269.81 z" fill="rgb(86,64,63)" transform="translate(0,0)"></path>
<path d="M 959.323 1215.1 C 961.608 1217.13 963.693 1218.54 966.171 1220.28 C 969.809 1220.71 979.389 1227.37 985.156 1229.57 C 993.546 1232.76 1000.92 1235.36 1009.59 1237.93 C 1016.76 1240.05 1025.01 1237.07 1030.01 1240.27 C 1016.31 1248.69 1001.34 1258.39 986.716 1264.87 L 1001.28 1267.37 L 1000.42 1267.59 C 996.446 1268.58 994.986 1268.66 990.896 1268.85 C 990.624 1270.25 990.576 1269.5 991.332 1271.07 L 990.97 1272.5 C 1002.66 1277.32 1017.44 1276.91 1029.91 1276.88 C 1022.55 1290.86 1013.93 1304.14 1006.34 1317.86 C 999.639 1329.99 993.099 1343.37 986.832 1355.81 C 951.4 1328.77 921.077 1295.62 897.289 1257.93 C 921.787 1236.6 931.66 1231.01 959.323 1215.1 z" fill="rgb(251,220,150)" transform="translate(0,0)"></path>
<path d="M 966.171 1220.28 C 969.809 1220.71 979.389 1227.37 985.156 1229.57 C 993.546 1232.76 1000.92 1235.36 1009.59 1237.93 C 1016.76 1240.05 1025.01 1237.07 1030.01 1240.27 C 1016.31 1248.69 1001.34 1258.39 986.716 1264.87 L 1001.28 1267.37 L 1000.42 1267.59 C 996.446 1268.58 994.986 1268.66 990.896 1268.85 C 990.624 1270.25 990.576 1269.5 991.332 1271.07 L 990.97 1272.5 C 985.772 1271.2 975.326 1269.72 974.573 1263.82 C 977.034 1260.28 988.41 1258.53 994.593 1255.15 C 1003.06 1250.52 1010.96 1246 1019.29 1241.11 C 1000.64 1237.88 980.726 1232.88 966.171 1220.28 z" fill="url(#Gradient1)" transform="translate(0,0)"></path>
<path d="M 1208.86 88.1779 L 1203.44 111.004 C 1130.22 179.51 1074.37 264.474 1040.53 358.861 C 1032.92 380.37 1027.44 401.436 1021.72 423.47 C 1018.12 437.315 1006.54 435.803 996.126 432.158 C 992.037 429.578 991.364 426.84 992.652 421.949 C 1026.35 294.004 1102.58 168.487 1208.86 88.1779 z" fill="rgb(86,64,63)" transform="translate(0,0)"></path>
<path d="M 1346.28 1396.71 C 1349.97 1402.05 1361.14 1450.81 1364.22 1461.3 C 1368.49 1475.89 1373.03 1498.71 1376.9 1514.3 C 1380.37 1528.27 1389.99 1554.24 1392.51 1565.88 C 1396.1 1582.47 1434.59 1665.38 1431.38 1674.27 C 1428.16 1674.84 1428.55 1674.21 1424.83 1672.17 C 1383.26 1642.17 1352.21 1556.08 1333.42 1509.37 C 1341.22 1465.85 1343.53 1440.19 1346.28 1396.71 z" fill="rgb(86,64,63)" transform="translate(0,0)"></path>
<path d="M 1071.9 1854.15 L 1072.58 1855.17 C 1069.54 1868.42 1011.12 1949.07 999.965 1963.38 C 1036.7 1966.2 1041.74 1957.43 1077.65 1977.86 C 1061.01 1985.75 1051.31 1986.45 1032.96 1987.92 C 1000.82 1988.48 985.176 1987.67 954.425 1978.44 C 964.637 1959.85 1011.43 1882.95 1024.79 1873.76 C 1035.4 1866.46 1058.88 1859.57 1071.9 1854.15 z" fill="rgb(86,64,63)" transform="translate(0,0)"></path>
<path d="M 1259.52 63.256 C 1323.13 56.4489 1318.63 128.809 1261.28 145.374 C 1198.41 152.937 1198.06 73.3062 1259.52 63.256 z" fill="rgb(218,121,117)" transform="translate(0,0)"></path>
<path d="M 1619.37 133.886 L 1619.94 134.004 C 1621.36 136.329 1620.32 140.007 1619.96 143.304 C 1550.68 177.792 1468.44 248.281 1430.71 316.27 C 1423.3 314.592 1414.63 313.454 1407.03 312.28 C 1403.87 312.225 1402.09 312.502 1399.32 310.983 L 1399.06 308.923 C 1407.15 292.195 1420.07 280.52 1431.83 266.627 C 1473.42 217.5 1526.61 180.571 1583.52 151.358 C 1595.27 145.325 1607.52 139.883 1619.37 133.886 z" fill="rgb(86,64,63)" transform="translate(0,0)"></path>
<path d="M 902.497 1893.36 C 906.028 1892.74 907.519 1892.17 910.064 1894.6 C 910.682 1908.17 858.19 1952.74 846.879 1969.55 C 872.562 1974.78 901.067 1967.73 924.97 1986.31 C 913.972 1992.55 907.469 1993.32 895.248 1994.84 C 863.62 1996.55 835.536 1992.57 806.276 1979.9 C 818.085 1959.55 851.808 1915.21 868.226 1898.43 C 875.687 1896.51 894.101 1894.47 902.497 1893.36 z" fill="rgb(86,64,63)" transform="translate(0,0)"></path>
<path d="M 1669.62 115.337 C 1724.48 110.29 1735.46 177.142 1676.96 186.853 C 1616.12 188.801 1612.6 123.227 1669.62 115.337 z" fill="rgb(218,121,117)" transform="translate(0,0)"></path>
<path d="M 1831.35 786.124 C 1832.86 789.702 1832.84 790.121 1833.27 794.05 C 1832.74 806.034 1830.85 831.846 1826.49 842.929 C 1823.7 840.668 1820.93 838.378 1818.19 836.06 C 1825.18 817.893 1827.88 804.829 1831.35 786.124 z" fill="rgb(254,254,253)" transform="translate(0,0)"></path>
<path d="M 1778.56 574.383 C 1782.64 578.764 1791.34 593.785 1794.07 599.2 L 1793.47 599.38 C 1786.99 591.111 1782.71 583.766 1776.93 575.015 L 1778.56 574.383 z" fill="rgb(86,64,63)" transform="translate(0,0)"></path>
<path d="M 1832.26 776.871 C 1832.44 772.305 1832.16 761.186 1833.75 757.737 C 1836.39 760.665 1835.53 775.292 1834.46 778.768 L 1833.71 776.7 L 1832.26 776.871 z" fill="rgb(144,122,123)" transform="translate(0,0)"></path>
<path d="M 1832.26 776.871 L 1833.71 776.7 L 1834.46 778.768 L 1833.27 794.05 C 1832.84 790.121 1832.86 789.702 1831.35 786.124 L 1832.26 776.871 z" fill="rgb(245,238,237)" transform="translate(0,0)"></path>
<metadata><recraft-signature>{"signed_by": "recraft", "signature_b64": "BSdp5xYo/wY30EBcbWbFqtRJfGOEZ6fTTfKQn0whx278uE5ZEDYHrOlikox96BAu+nwlbaIZBt+eyF4rQ3ebAg==", "signing_algo": "Ed25519", "generation_timestamp": 1777548233, "identifier": "13f503ca-b3ac-4057-bd04-c62b28626d46"}</recraft-signature></metadata></svg>